<svg xmlns="http://www.w3.org/2000/svg" viewBox="0 0 1829.85 1839.63"><defs><style>.cls-1{opacity:0.2;}.cls-2{fill:#088f8f;fill-rule:evenodd;}</style></defs><g id="Layer_2" data-name="Layer 2"><g id="Layer_1-2" data-name="Layer 1"><g class="cls-1"><path class="cls-2" d="M349.89,54.75l2.43-2.44,2.45,2.45L322.63,86.91c.83.55,1.66,1.09,2.48,1.6l-1.85,2.92c-1.71-1.07-3.44-2.23-5.16-3.43L290.84,78l10.51,28.61-3.24,1.19L286.58,76.41,255.22,64.88l1.2-3.24L285,72.15,275,44.86c-1.21-1.72-2.35-3.43-3.41-5.11l2.92-1.85c.52.82,1.05,1.65,1.61,2.48L308.25,8.24l2.44,2.44-2.43,2.44,41.63,41.64ZM323.35,39.69,320,46.16l5.15,5.12L318,50.13l-3.28,6.48-1.13-7.17-7.17-1.13L312.91,45l-1.16-7.18L316.88,43l6.47-3.31Zm-3.62,45.23L325.64,79,284,37.38l-5.91,5.91a179.36,179.36,0,0,0,19.26,22.57,177,177,0,0,0,22.35,19ZM282.09,54.18l7.19,19.54,19.48,7.16C304,77,299.34,72.73,294.91,68.3S286,59,282.09,54.18Z"/></g><g class="cls-1"><path class="cls-2" d="M879.12,60.59a2.09,2.09,0,0,1,0,2.95l-6.07,6.07A6.78,6.78,0,0,0,863.66,79l-6.06,6.06a2.09,2.09,0,0,1-3,0l-37.2-37.2a1.05,1.05,0,0,0-.3-.9,1.09,1.09,0,0,0-.91-.31L808.53,39a2.09,2.09,0,0,1,0-3l6.1-6.1A6.79,6.79,0,0,0,824,20.57l6.09-6.1a2.09,2.09,0,0,1,3,0l7.71,7.71a1.08,1.08,0,0,0,.3.91,1.12,1.12,0,0,0,.91.3l37.2,37.2ZM820,44.14a1.08,1.08,0,0,1-1.52,1.53,1.09,1.09,0,0,1,0-1.53,1.07,1.07,0,0,1,1.52,0Zm2.83-2.82a1.08,1.08,0,1,1-1.53,0,1.09,1.09,0,0,1,1.53,0Zm2.82-2.82a1.07,1.07,0,0,1,0,1.52,1.09,1.09,0,0,1-1.53,0,1.07,1.07,0,0,1,0-1.52,1.09,1.09,0,0,1,1.53,0Zm2.82-2.83a1.09,1.09,0,0,1,0,1.53,1.07,1.07,0,0,1-1.52,0,1.09,1.09,0,0,1,0-1.53,1.07,1.07,0,0,1,1.52,0Zm2.82-2.82a1.09,1.09,0,0,1,0,1.53,1.07,1.07,0,0,1-1.52,0,1.09,1.09,0,0,1,0-1.53,1.07,1.07,0,0,1,1.52,0ZM834.08,30a1.08,1.08,0,1,1-1.53,0,1.09,1.09,0,0,1,1.53,0Zm2.82-2.82a1.07,1.07,0,0,1,0,1.52,1.09,1.09,0,0,1-1.53,0,1.07,1.07,0,0,1,0-1.52,1.09,1.09,0,0,1,1.53,0Zm2.82-2.83a1.09,1.09,0,0,1,0,1.53,1.07,1.07,0,0,1-1.52,0,1.09,1.09,0,0,1,0-1.53,1.07,1.07,0,0,1,1.52,0Zm25.13,33.26a2.43,2.43,0,0,1,0,3.44L854.28,71.66a2.43,2.43,0,0,1-3.44,0l-23-23a2.45,2.45,0,0,1,0-3.44L838.4,34.63a2.43,2.43,0,0,1,3.44,0l23,23Z"/></g><g class="cls-1"><path class="cls-2" d="M83.43,73.8c-9.79,8.55-23.35,20.4-37.24,15a94.19,94.19,0,0,0-14.11-7.69,45.78,45.78,0,0,1-13.7-6.88L13.6,63.86c-3.25-8.61-10.67-16-10.22-24.67.55-10.58,10-21.85,16.07-28.56,1.49-1.81,2.16-1.54,3.35-.14,4.13,7.24,9.68,7.43,13,13,4.33,5.95,6.34,14.11,13,21.86,6,4.27,13.17,8.18,20.59,12,5.31,2.88,5,5.38,8.41,9.24a21.82,21.82,0,0,0,5,4.2c1.36.8,1.5,1.78.54,2.94Zm-14-1.92C58.65,77,51.47,76.78,40.5,64.5a8.78,8.78,0,0,1,3.89-3.92c9-4.56,19.38,5.47,25,11.3Zm-49.36-46c-3.69,11.47.24,18.69,11.74,29.88a9.89,9.89,0,0,0,3.73-4.08c6.16-10.18-6.92-22.08-15.47-25.8Z"/></g><g class="cls-1"><path class="cls-2" d="M569.81,23.75c-2.46,2.31-4.54,4.51-6,6.19a68.55,68.55,0,0,0-12,19.65c-4.16-1.46-9.49-2.44-12.58,1,3.93,1,8,2.36,10.75,4.82v0A32.39,32.39,0,0,0,549.91,72a18.74,18.74,0,0,1-6.51-2.3c-13.25-7.67-12.87-26.12-9-39.07,1.88-6.29,7.8-20.57,14.31-23.38,3.69-1.59,6.37,1.61,9.43,5.59.64.84,1.29,1.7,2,2.56a33.5,33.5,0,0,0,9.69,8.4Zm54.27,38.3c.14,5.4-13.9,15.53-18.16,18a67.57,67.57,0,0,1-19.54,7.36c-10.84,2-19.37.22-25-6.16-10.7-12-4.21-30.33,3.94-42,4-5.65,14.58-18,22-18.61,4.2-.37,5.82,3.72,7.55,8.71.37,1,.74,2.12,1.14,3.2A34.26,34.26,0,0,0,611.44,51c3.38,1.94,7.06,3.93,10,6.51,1.56,1.37,2.63,2.87,2.67,4.52ZM603.3,71.57c-3-1.65-17.51-13-5.71-11.56,8.36,1,10.95,11.61,8.56,12.4-.6.19-1.54-.07-2.85-.84ZM577,76.37c-6.93-1.16-11.12-5.62-9.91-12.75a14.36,14.36,0,0,1,3-6.61c1,9.13,6.25,14.79,15,17.66a11.2,11.2,0,0,1-8.13,1.7Zm-.93-36.62c1.07,3.3,9.64,19.58,10.34,7.71C587,39.05,577,34.57,575.8,36.79c-.31.55-.22,1.52.3,3Zm-19.5-6.4a7.65,7.65,0,0,1-6.16-.35,18.52,18.52,0,0,1-6.81-4.95,3.5,3.5,0,0,1-1-1.84c-.17-1.93,3.26-1.71,4.47-1.59,4.77.46,9,3.77,9.53,8.73Z"/></g><g class="cls-1"><path class="cls-2" d="M1372.51,46.51l2.43-2.44,2.45,2.45-32.14,32.15c.83.55,1.66,1.09,2.48,1.6l-1.85,2.92c-1.72-1.07-3.44-2.22-5.16-3.43l-27.26-10L1324,98.34l-3.24,1.19L1309.2,68.17l-31.36-11.53,1.2-3.24,28.6,10.51-10-27.29c-1.21-1.72-2.35-3.43-3.41-5.11l2.92-1.85c.52.82,1.05,1.65,1.6,2.48L1330.87,0l2.44,2.45-2.43,2.43,41.63,41.64ZM1346,31.45l-3.31,6.47,5.15,5.12-7.18-1.15-3.28,6.48-1.13-7.17-7.17-1.13,6.48-3.28-1.16-7.18,5.13,5.15,6.47-3.31Zm-3.62,45.23,5.91-5.91-41.63-41.63-5.91,5.91A178.66,178.66,0,0,0,1320,57.62a176.25,176.25,0,0,0,22.35,19.05Zm-37.64-30.74,7.19,19.54,19.48,7.16c-4.75-3.89-9.42-8.15-13.85-12.58-4.57-4.58-8.91-9.35-12.82-14.12Z"/></g><g class="cls-1"><path class="cls-2" d="M1823.89,64a2.09,2.09,0,0,1,0,3L1817.82,73a6.78,6.78,0,0,0-9.39,9.39l-6.06,6.06a2.11,2.11,0,0,1-3,0l-37.19-37.2a1.05,1.05,0,0,0-.3-.9A1.09,1.09,0,0,0,1761,50l-7.71-7.71a2.09,2.09,0,0,1,0-3l6.1-6.09a6.78,6.78,0,0,0,9.32-9.33l6.1-6.1a2.09,2.09,0,0,1,3,0l7.71,7.71a1.08,1.08,0,0,0,.3.91,1.12,1.12,0,0,0,.91.3l37.2,37.2Zm-59.16-16.45a1.07,1.07,0,0,1,0,1.52,1.06,1.06,0,0,1-1.52,0,1.07,1.07,0,0,1,1.52-1.52Zm2.83-2.82a1.07,1.07,0,0,1,0,1.52,1.09,1.09,0,0,1-1.53,0,1.07,1.07,0,0,1,0-1.52,1.09,1.09,0,0,1,1.53,0Zm2.82-2.83a1.08,1.08,0,1,1-1.53,0,1.09,1.09,0,0,1,1.53,0Zm2.82-2.82a1.09,1.09,0,0,1,0,1.53,1.08,1.08,0,1,1,0-1.53Zm2.82-2.82a1.09,1.09,0,0,1,0,1.53,1.07,1.07,0,0,1-1.52,0,1.09,1.09,0,0,1,0-1.53,1.07,1.07,0,0,1,1.52,0Zm2.83-2.82a1.07,1.07,0,0,1,0,1.52,1.09,1.09,0,0,1-1.53,0,1.07,1.07,0,0,1,0-1.52,1.09,1.09,0,0,1,1.53,0Zm2.82-2.83a1.08,1.08,0,1,1-1.53,0,1.09,1.09,0,0,1,1.53,0Zm2.82-2.82a1.08,1.08,0,1,1-1.53,0,1.09,1.09,0,0,1,1.53,0ZM1809.62,61a2.43,2.43,0,0,1,0,3.44L1799.05,75a2.46,2.46,0,0,1-3.45,0l-23-23a2.46,2.46,0,0,1,0-3.45L1783.17,38a2.43,2.43,0,0,1,3.44,0l23,23Z"/></g><g class="cls-1"><path class="cls-2" d="M1123.59,75.77c-9.79,8.54-23.35,20.39-37.24,15a95.16,95.16,0,0,0-14.11-7.68,45.92,45.92,0,0,1-13.7-6.89l-4.78-10.41c-3.25-8.61-10.67-16-10.22-24.67.55-10.57,10-21.84,16.07-28.56,1.49-1.81,2.16-1.54,3.35-.13,4.13,7.24,9.68,7.43,13,13,4.33,6,6.34,14.11,13,21.87a172.63,172.63,0,0,0,20.6,12c5.31,2.88,5,5.37,8.41,9.23a22.12,22.12,0,0,0,5,4.21c1.36.79,1.49,1.78.54,2.94Zm-14-1.93c-10.76,5.1-17.94,4.91-28.91-7.37a8.8,8.8,0,0,1,3.89-3.93c9-4.56,19.38,5.47,25,11.3Zm-49.36-46c-3.69,11.48.24,18.7,11.74,29.89a9.92,9.92,0,0,0,3.73-4.09c6.16-10.17-6.92-22.07-15.47-25.8Z"/></g><g class="cls-1"><path class="cls-2" d="M1558,21.18c-2.46,2.31-4.54,4.51-6,6.19A68.55,68.55,0,0,0,1540,47c-4.16-1.46-9.49-2.45-12.58,1,3.93,1,8,2.36,10.75,4.82v0a32.18,32.18,0,0,0-.06,16.56,18.71,18.71,0,0,1-6.52-2.3c-13.24-7.67-12.87-26.12-9-39.07,1.88-6.29,7.8-20.57,14.31-23.38,3.69-1.59,6.37,1.61,9.43,5.59.64.84,1.3,1.7,2,2.56a33.5,33.5,0,0,0,9.69,8.4Zm54.28,38.3c.13,5.4-13.91,15.52-18.17,18a67.27,67.27,0,0,1-19.54,7.35c-10.84,2-19.37.23-25-6.15-10.7-12-4.21-30.33,3.94-42,4-5.65,14.58-18,22-18.61,4.2-.37,5.82,3.72,7.55,8.7.37,1.05.74,2.13,1.14,3.21a34.26,34.26,0,0,0,15.46,18.45c3.38,1.94,7.06,3.93,10,6.51,1.56,1.36,2.63,2.86,2.68,4.52ZM1591.45,69c-3-1.66-17.51-13-5.71-11.56,8.36,1,11,11.61,8.56,12.4-.6.19-1.54-.07-2.85-.84Zm-26.27,4.8c-6.92-1.16-11.12-5.62-9.91-12.75a14.36,14.36,0,0,1,3-6.61c1,9.13,6.25,14.79,15,17.66a11.23,11.23,0,0,1-8.14,1.7Zm-.93-36.62c1.07,3.29,9.64,19.58,10.34,7.71.56-8.41-9.43-12.89-10.64-10.68-.31.56-.22,1.53.3,3Zm-19.5-6.41a7.61,7.61,0,0,1-6.16-.34,18.52,18.52,0,0,1-6.81-4.95,3.5,3.5,0,0,1-1-1.84c-.17-1.93,3.26-1.71,4.47-1.6,4.78.47,9,3.78,9.53,8.73Z"/></g><g class="cls-1"><path class="cls-2" d="M533.2,254.62,574.83,213l-2.43-2.43,2.44-2.45L607,240.25c.56-.84,1.09-1.66,1.61-2.49l2.92,1.85q-1.59,2.52-3.41,5.12l-10,27.29,28.6-10.52,1.2,3.24-31.36,11.53L585,307.64l-3.24-1.2,10.51-28.6-27.26,10c-1.72,1.21-3.45,2.36-5.16,3.43L558,288.38c.82-.52,1.65-1.06,2.48-1.61l-32.14-32.14,2.45-2.45,2.43,2.43Zm26.54-15.07,6.47,3.31,5.12-5.15-1.15,7.18,6.48,3.28-7.17,1.13-1.13,7.17L565.08,250l-7.18,1.15,5.15-5.13-3.31-6.47Zm3.62,45.23h0a175.31,175.31,0,0,0,22.35-19A178.66,178.66,0,0,0,605,243.15l-5.91-5.91-41.63,41.64,5.91,5.9ZM601,254.05c-3.91,4.77-8.25,9.54-12.82,14.11s-9.1,8.69-13.85,12.59l19.48-7.17L601,254.05Z"/></g><g class="cls-1"><path class="cls-2" d="M4,260.45l37.2-37.2a1.06,1.06,0,0,0,1.21-1.2l7.71-7.71a2.09,2.09,0,0,1,2.95,0l6.09,6.1a6.78,6.78,0,0,0,9.33,9.32l6.1,6.1a2.09,2.09,0,0,1,0,2.95l-7.71,7.71a1.12,1.12,0,0,0-.91.3,1.08,1.08,0,0,0-.3.91l-37.2,37.19a2.09,2.09,0,0,1-3,0l-6.06-6.05a6.78,6.78,0,0,0-9.39-9.4L4,263.41a2.11,2.11,0,0,1,0-3ZM63.13,244a1.06,1.06,0,0,1,1.52,0,1.07,1.07,0,0,1-1.52,1.52,1.06,1.06,0,0,1,0-1.52Zm-2.83-2.83a1.08,1.08,0,1,1,0,1.53,1.09,1.09,0,0,1,0-1.53Zm-2.82-2.82a1.08,1.08,0,1,1,0,1.53,1.09,1.09,0,0,1,0-1.53Zm-2.82-2.82a1.07,1.07,0,1,1,0,1.52,1.07,1.07,0,0,1,0-1.52Zm-2.82-2.82a1.06,1.06,0,0,1,1.52,0,1.07,1.07,0,1,1-1.52,1.52,1.06,1.06,0,0,1,0-1.52ZM49,229.89a1.08,1.08,0,1,1,0,1.53,1.09,1.09,0,0,1,0-1.53Zm-2.82-2.82a1.08,1.08,0,1,1,0,1.53,1.09,1.09,0,0,1,0-1.53Zm-2.82-2.82a1.07,1.07,0,1,1,0,1.52,1.07,1.07,0,0,1,0-1.52ZM18.23,257.5l23-23a2.45,2.45,0,0,1,3.44,0l10.58,10.58a2.45,2.45,0,0,1,0,3.44l-23,23a2.43,2.43,0,0,1-3.44,0L18.23,261a2.46,2.46,0,0,1,0-3.45Z"/></g><g class="cls-1"><path class="cls-2" d="M799.66,273.66c-1-1.16-.82-2.14.53-2.94a21.67,21.67,0,0,0,5-4.2c3.4-3.86,3.1-6.36,8.41-9.23,7.41-3.86,14.64-7.76,20.59-12,6.7-7.76,8.71-15.92,13-21.87,3.35-5.6,8.9-5.8,13-13,1.19-1.41,1.86-1.68,3.35.13,6,6.72,15.51,18,16.07,28.56.45,8.64-7,16.06-10.22,24.67l-4.78,10.41A45.78,45.78,0,0,1,851,281a95.11,95.11,0,0,0-14.11,7.69c-13.89,5.36-27.46-6.49-37.24-15Zm14-1.92c5.64-5.83,16-15.86,25-11.3a8.8,8.8,0,0,1,3.89,3.93c-11,12.28-18.15,12.47-28.91,7.37Zm49.36-46c-8.55,3.72-21.63,15.62-15.47,25.8a9.92,9.92,0,0,0,3.73,4.09c11.5-11.2,15.43-18.41,11.74-29.89Z"/></g><g class="cls-1"><path class="cls-2" d="M313.28,223.61a33.61,33.61,0,0,0,9.69-8.39c.69-.87,1.34-1.73,2-2.56,3.06-4,5.74-7.19,9.43-5.6,6.51,2.82,12.43,17.1,14.31,23.38,3.87,12.95,4.24,31.4-9,39.07a18.54,18.54,0,0,1-6.51,2.3,32.39,32.39,0,0,0-.06-16.56v0c2.74-2.46,6.82-3.79,10.75-4.82-3.09-3.44-8.42-2.45-12.58-1a68.28,68.28,0,0,0-12-19.65c-1.46-1.68-3.54-3.89-6-6.2ZM259,261.92c0-1.66,1.11-3.16,2.67-4.53,2.91-2.57,6.59-4.56,10-6.5a34.31,34.31,0,0,0,15.46-18.46c.4-1.08.77-2.16,1.14-3.2,1.73-5,3.35-9.08,7.55-8.7,7.44.66,18.06,12.95,22,18.6,8.15,11.64,14.64,29.93,3.94,42-5.68,6.39-14.21,8.14-25.05,6.16a67,67,0,0,1-19.54-7.36c-4.26-2.46-18.3-12.59-18.16-18Zm20.78,9.52c-1.31.76-2.25,1-2.85.83-2.4-.79.2-11.42,8.56-12.4,11.8-1.47-2.66,9.91-5.71,11.57Zm26.27,4.79a11.18,11.18,0,0,1-8.14-1.7c8.77-2.87,14-8.53,15-17.65a14.32,14.32,0,0,1,3,6.6c1.21,7.13-3,11.6-9.91,12.75Zm.93-36.62c.52-1.43.61-2.4.3-3-1.21-2.21-11.2,2.27-10.64,10.67.7,11.87,9.27-4.41,10.34-7.71Zm19.5-6.4c.55-5,4.75-8.27,9.53-8.73,1.21-.12,4.64-.34,4.47,1.59a3.47,3.47,0,0,1-1,1.84,18.52,18.52,0,0,1-6.81,5,7.65,7.65,0,0,1-6.16.35Z"/></g><g class="cls-1"><path class="cls-2" d="M1481.34,245.9,1523,204.27l-2.44-2.44,2.45-2.45,32.14,32.15c.56-.84,1.09-1.66,1.61-2.48l2.91,1.84c-1.05,1.69-2.2,3.39-3.41,5.12l-10,27.29,28.61-10.51L1576,256l-31.36,11.53-11.53,31.36-3.24-1.2,10.51-28.6-27.25,10q-2.6,1.82-5.17,3.44l-1.85-2.92c.82-.52,1.65-1.06,2.48-1.61l-32.14-32.14,2.45-2.45,2.44,2.44Zm26.55-15.06,6.46,3.3,5.13-5.14-1.15,7.17,6.48,3.29-7.18,1.12-1.12,7.18-3.29-6.48-7.17,1.15,5.14-5.13-3.3-6.46Zm3.62,45.22h0A176.22,176.22,0,0,0,1533.88,257a179.37,179.37,0,0,0,19.25-22.57l-5.9-5.91-41.64,41.64,5.91,5.91Zm37.64-30.73c-3.92,4.77-8.25,9.54-12.83,14.11-4.43,4.43-9.09,8.69-13.85,12.59l19.48-7.16,7.2-19.54Z"/></g><g class="cls-1"><path class="cls-2" d="M4.88,1319.09l41.64-41.63L44.08,1275l2.44-2.45,32.15,32.15c.55-.84,1.09-1.66,1.6-2.49l2.92,1.85q-1.59,2.52-3.41,5.12l-10,27.29L98.35,1326l1.2,3.24-31.36,11.54-11.53,31.36-3.24-1.2,10.51-28.6-27.25,10q-2.59,1.82-5.17,3.44l-1.85-2.92c.82-.52,1.65-1.06,2.48-1.61L0,1319.1l2.45-2.45,2.44,2.43ZM31.42,1304l6.47,3.31,5.13-5.14-1.15,7.17,6.48,3.29-7.18,1.12L40.05,1321l-3.29-6.48-7.17,1.15,5.14-5.13L31.42,1304ZM35,1349.25h0a175.46,175.46,0,0,0,22.34-19.06,178.66,178.66,0,0,0,19.26-22.57l-5.91-5.91-41.63,41.64,5.91,5.9Zm37.64-30.73c-3.91,4.77-8.24,9.54-12.82,14.11s-9.1,8.69-13.85,12.59l19.48-7.17,7.19-19.53Z"/></g><g class="cls-1"><path class="cls-2" d="M1030,263.35l37.2-37.2a1.05,1.05,0,0,0,.9-.3,1.08,1.08,0,0,0,.31-.91l7.7-7.7a2.08,2.08,0,0,1,3,0l6.1,6.1a6.78,6.78,0,0,0,9.33,9.32l6.09,6.1a2.09,2.09,0,0,1,0,3l-7.71,7.71a1.07,1.07,0,0,0-1.21,1.21l-37.19,37.19a2.09,2.09,0,0,1-3,0l-6.06-6.05a6.79,6.79,0,0,0-9.4-9.4L1030,266.3a2.08,2.08,0,0,1,0-2.95Zm59.15-16.45a1.08,1.08,0,1,1,0,1.53,1.09,1.09,0,0,1,0-1.53Zm-2.82-2.82a1.07,1.07,0,0,1,1.52,0,1.09,1.09,0,0,1,0,1.53,1.07,1.07,0,0,1-1.52,0,1.09,1.09,0,0,1,0-1.53Zm-2.82-2.82a1.07,1.07,0,1,1,1.52,1.52,1.06,1.06,0,0,1-1.52,0,1.07,1.07,0,0,1,0-1.52Zm-2.83-2.82a1.09,1.09,0,0,1,1.53,0,1.07,1.07,0,0,1,0,1.52,1.09,1.09,0,0,1-1.53,0,1.07,1.07,0,0,1,0-1.52Zm-2.82-2.83a1.08,1.08,0,1,1,0,1.53,1.09,1.09,0,0,1,0-1.53Zm-2.82-2.82a1.07,1.07,0,0,1,1.52,0,1.09,1.09,0,0,1,0,1.53,1.07,1.07,0,0,1-1.52,0,1.09,1.09,0,0,1,0-1.53Zm-2.82-2.82a1.07,1.07,0,0,1,1.52,1.52,1.06,1.06,0,0,1-1.52,0,1.07,1.07,0,0,1,0-1.52Zm-2.83-2.82a1.09,1.09,0,0,1,1.53,0,1.07,1.07,0,0,1,0,1.52,1.09,1.09,0,0,1-1.53,0,1.07,1.07,0,0,1,0-1.52Zm-25.13,33.25,23-23a2.43,2.43,0,0,1,3.44,0L1081.26,248a2.43,2.43,0,0,1,0,3.44l-23,23a2.43,2.43,0,0,1-3.44,0l-10.58-10.58a2.43,2.43,0,0,1,0-3.44Z"/></g><g class="cls-1"><path class="cls-2" d="M1730.26,275.15c-1-1.16-.82-2.14.54-2.94a21.41,21.41,0,0,0,5-4.2c3.41-3.87,3.11-6.36,8.42-9.24a173.27,173.27,0,0,0,20.59-12c6.7-7.75,8.7-15.92,13-21.86,3.35-5.61,8.91-5.8,13-13,1.19-1.4,1.85-1.67,3.34.14,6,6.71,15.52,18,16.07,28.56.45,8.63-7,16.06-10.21,24.67l-4.78,10.41a45.84,45.84,0,0,1-13.71,6.88,94.53,94.53,0,0,0-14.1,7.69c-13.89,5.35-27.46-6.49-37.25-15Zm14-1.92c5.64-5.83,16-15.86,25-11.3a8.73,8.73,0,0,1,3.89,3.92c-11,12.28-18.14,12.48-28.91,7.38Zm49.36-46c-8.55,3.72-21.63,15.62-15.47,25.8a9.92,9.92,0,0,0,3.74,4.08c11.5-11.19,15.42-18.41,11.73-29.88Z"/></g><g class="cls-1"><path class="cls-2" d="M1295.9,220.56a33.42,33.42,0,0,0,9.68-8.39c.69-.87,1.34-1.73,2-2.56,3.07-4,5.75-7.19,9.43-5.6,6.51,2.82,12.43,17.1,14.31,23.38,3.88,13,4.25,31.41-9,39.07a18.47,18.47,0,0,1-6.51,2.3,32.29,32.29,0,0,0-.06-16.56v0c2.75-2.46,6.83-3.79,10.75-4.81-3.09-3.45-8.41-2.46-12.58-1a68.47,68.47,0,0,0-12-19.65c-1.47-1.68-3.55-3.89-6-6.2Zm-54.28,38.31c0-1.66,1.12-3.16,2.67-4.53,2.91-2.57,6.59-4.56,10-6.5a34.33,34.33,0,0,0,15.47-18.46c.39-1.08.76-2.16,1.13-3.2,1.73-5,3.35-9.08,7.56-8.7,7.43.66,18.06,13,22,18.6,8.16,11.64,14.64,29.93,3.94,42-5.67,6.39-14.21,8.14-25,6.16a67.06,67.06,0,0,1-19.55-7.36c-4.25-2.46-18.29-12.59-18.16-18Zm20.78,9.52c-1.31.77-2.25,1-2.85.83-2.39-.79.2-11.42,8.56-12.4,11.8-1.47-2.65,9.91-5.71,11.57Zm26.27,4.79a11.11,11.11,0,0,1-8.13-1.7c8.76-2.87,14-8.53,15-17.65a14.22,14.22,0,0,1,3,6.6c1.21,7.13-3,11.6-9.91,12.75Zm.94-36.62c.51-1.43.6-2.4.3-3-1.21-2.21-11.2,2.27-10.64,10.67.7,11.88,9.26-4.41,10.34-7.71Zm19.49-6.4c.55-4.95,4.76-8.27,9.53-8.73,1.22-.11,4.64-.34,4.47,1.59a3.44,3.44,0,0,1-1,1.84,18.6,18.6,0,0,1-6.81,4.95,7.64,7.64,0,0,1-6.17.35Z"/></g><g class="cls-1"><path class="cls-2" d="M533.2,1786.61,574.83,1745l-2.43-2.44,2.44-2.44L607,1772.24c.56-.84,1.09-1.66,1.61-2.48l2.92,1.85q-1.59,2.52-3.41,5.11l-10,27.29,28.6-10.51,1.2,3.24-31.36,11.53L585,1839.63l-3.24-1.2,10.51-28.6-27.26,10c-1.72,1.21-3.45,2.36-5.16,3.44l-1.85-2.92c.82-.52,1.65-1,2.48-1.61l-32.14-32.14,2.45-2.45,2.43,2.44Zm26.54-15.06,6.47,3.3,5.12-5.14-1.15,7.17,6.48,3.29-7.17,1.12-1.13,7.18-3.28-6.48-7.18,1.15,5.15-5.13-3.31-6.46Zm3.62,45.22h0A186.75,186.75,0,0,0,605,1775.14l-5.91-5.9-41.63,41.63,5.91,5.91ZM601,1786c-3.91,4.77-8.25,9.54-12.82,14.12-4.43,4.43-9.1,8.68-13.85,12.58l19.48-7.16L601,1786Z"/></g><g class="cls-1"><path class="cls-2" d="M4,1792.45l37.2-37.2a1.09,1.09,0,0,0,.91-.31,1.05,1.05,0,0,0,.3-.9l7.71-7.71a2.09,2.09,0,0,1,2.95,0l6.09,6.1a6.79,6.79,0,0,0,9.33,9.33l6.1,6.09a2.09,2.09,0,0,1,0,3l-7.71,7.71a1.09,1.09,0,0,0-.91.31,1.05,1.05,0,0,0-.3.9l-37.2,37.2a2.09,2.09,0,0,1-3,0l-6.06-6.06a6.78,6.78,0,0,0-9.39-9.39L4,1795.4a2.09,2.09,0,0,1,0-3ZM63.13,1776a1.07,1.07,0,0,1,1.52,1.52,1.07,1.07,0,1,1-1.52-1.52Zm-2.83-2.82a1.09,1.09,0,0,1,1.53,0,1.07,1.07,0,0,1,0,1.52,1.09,1.09,0,0,1-1.53,0,1.07,1.07,0,0,1,0-1.52Zm-2.82-2.83a1.08,1.08,0,1,1,0,1.53,1.09,1.09,0,0,1,0-1.53Zm-2.82-2.82a1.07,1.07,0,0,1,1.52,0,1.09,1.09,0,0,1,0,1.53,1.07,1.07,0,0,1-1.52,0,1.09,1.09,0,0,1,0-1.53Zm-2.82-2.82a1.07,1.07,0,0,1,1.52,1.52,1.07,1.07,0,0,1-1.52-1.52ZM49,1761.89a1.09,1.09,0,0,1,1.53,0,1.07,1.07,0,0,1,0,1.52,1.09,1.09,0,0,1-1.53,0,1.07,1.07,0,0,1,0-1.52Zm-2.82-2.83a1.08,1.08,0,1,1,0,1.53,1.09,1.09,0,0,1,0-1.53Zm-2.82-2.82a1.07,1.07,0,0,1,1.52,0,1.09,1.09,0,0,1,0,1.53,1.07,1.07,0,0,1-1.52,0,1.09,1.09,0,0,1,0-1.53ZM18.23,1789.5l23-23a2.43,2.43,0,0,1,3.44,0l10.58,10.57a2.45,2.45,0,0,1,0,3.44l-23,23a2.45,2.45,0,0,1-3.44,0l-10.58-10.58a2.45,2.45,0,0,1,0-3.44Z"/></g><g class="cls-1"><path class="cls-2" d="M799.66,1805.66c-1-1.16-.82-2.15.53-2.94a21.71,21.71,0,0,0,5-4.21c3.4-3.86,3.1-6.35,8.41-9.23,7.41-3.85,14.64-7.76,20.59-12,6.7-7.75,8.71-15.92,13-21.86,3.35-5.61,8.9-5.8,13-13,1.19-1.41,1.86-1.68,3.35.14,6,6.71,15.51,18,16.07,28.55.45,8.64-7,16.07-10.22,24.67l-4.78,10.41A45.57,45.57,0,0,1,851,1813a94.19,94.19,0,0,0-14.11,7.69c-13.89,5.35-27.46-6.5-37.24-15Zm14-1.92c5.64-5.84,16-15.86,25-11.3a8.73,8.73,0,0,1,3.89,3.92c-11,12.28-18.15,12.48-28.91,7.38Zm49.36-46c-8.55,3.72-21.63,15.62-15.47,25.8a9.89,9.89,0,0,0,3.73,4.08c11.5-11.19,15.43-18.41,11.74-29.88Z"/></g><g class="cls-1"><path class="cls-2" d="M313.28,1755.61a33.5,33.5,0,0,0,9.69-8.4c.69-.86,1.34-1.72,2-2.56,3.06-4,5.74-7.18,9.43-5.59,6.51,2.81,12.43,17.09,14.31,23.38,3.87,13,4.24,31.4-9,39.07a18.74,18.74,0,0,1-6.51,2.3,32.39,32.39,0,0,0-.06-16.56h0c2.74-2.46,6.82-3.79,10.75-4.81-3.09-3.45-8.42-2.46-12.58-1a68.55,68.55,0,0,0-12-19.65c-1.46-1.68-3.54-3.88-6-6.19ZM259,1793.91c0-1.66,1.11-3.16,2.67-4.53,2.91-2.57,6.59-4.56,10-6.5a34.29,34.29,0,0,0,15.46-18.45c.4-1.09.77-2.17,1.14-3.21,1.73-5,3.35-9.08,7.55-8.7,7.44.66,18.06,13,22,18.6,8.15,11.64,14.64,29.94,3.94,42-5.68,6.38-14.21,8.13-25.05,6.15a67.27,67.27,0,0,1-19.54-7.35c-4.26-2.47-18.3-12.59-18.16-18Zm20.78,9.52c-1.31.77-2.25,1-2.85.83-2.4-.79.2-11.42,8.56-12.39,11.8-1.48-2.66,9.9-5.71,11.56Zm26.27,4.8a11.23,11.23,0,0,1-8.14-1.7c8.77-2.88,14-8.54,15-17.66a14.37,14.37,0,0,1,3,6.6c1.21,7.14-3,11.6-9.91,12.76Zm.93-36.63c.52-1.43.61-2.4.3-3-1.21-2.21-11.2,2.27-10.64,10.67.7,11.88,9.27-4.41,10.34-7.71Zm19.5-6.4c.55-5,4.75-8.26,9.53-8.73,1.21-.11,4.64-.33,4.47,1.6a3.54,3.54,0,0,1-1,1.84,18.39,18.39,0,0,1-6.81,4.94,7.57,7.57,0,0,1-6.16.35Z"/></g><g class="cls-1"><path class="cls-2" d="M1481.34,1777.89l41.64-41.63-2.44-2.44,2.45-2.44,32.14,32.14c.56-.83,1.09-1.66,1.61-2.48l2.91,1.85c-1.05,1.68-2.2,3.38-3.41,5.11l-10,27.29,28.61-10.51L1576,1788l-31.36,11.53-11.53,31.36-3.24-1.19,10.51-28.61-27.25,10q-2.6,1.81-5.17,3.44l-1.85-2.92c.82-.52,1.65-1.05,2.48-1.6l-32.14-32.15,2.45-2.45,2.44,2.44Zm26.55-15.06,6.46,3.31,5.13-5.15-1.15,7.18,6.48,3.28-7.18,1.13-1.12,7.17-3.29-6.48-7.17,1.15,5.14-5.12-3.3-6.47Zm3.62,45.23h0a177,177,0,0,0,22.35-19,180.08,180.08,0,0,0,19.25-22.57l-5.9-5.91-41.64,41.63,5.91,5.91Zm37.64-30.74c-3.92,4.77-8.25,9.54-12.83,14.12-4.43,4.43-9.09,8.69-13.85,12.58l19.48-7.16,7.2-19.54Z"/></g><g class="cls-1"><path class="cls-2" d="M1030,1795.35l37.2-37.2a1.09,1.09,0,0,0,1.21-1.21l7.7-7.71a2.09,2.09,0,0,1,3,0l6.1,6.1a6.79,6.79,0,0,0,9.33,9.33l6.09,6.09a2.09,2.09,0,0,1,0,3l-7.71,7.71a1.07,1.07,0,0,0-1.21,1.21l-37.19,37.19a2.08,2.08,0,0,1-3,0l-6.06-6a6.79,6.79,0,0,0-9.4-9.4l-6.06-6.06a2.08,2.08,0,0,1,0-3Zm59.15-16.45a1.09,1.09,0,0,1,1.53,0,1.07,1.07,0,0,1,0,1.52,1.09,1.09,0,0,1-1.53,0,1.07,1.07,0,0,1,0-1.52Zm-2.82-2.82a1.07,1.07,0,1,1,0,1.52,1.07,1.07,0,0,1,0-1.52Zm-2.82-2.83a1.07,1.07,0,0,1,1.52,0,1.09,1.09,0,0,1,0,1.53,1.07,1.07,0,0,1-1.52,0,1.09,1.09,0,0,1,0-1.53Zm-2.83-2.82a1.08,1.08,0,1,1,0,1.53,1.09,1.09,0,0,1,0-1.53Zm-2.82-2.82a1.09,1.09,0,0,1,1.53,0,1.07,1.07,0,0,1,0,1.52,1.09,1.09,0,0,1-1.53,0,1.07,1.07,0,0,1,0-1.52Zm-2.82-2.82a1.07,1.07,0,1,1,0,1.52,1.07,1.07,0,0,1,0-1.52Zm-2.82-2.83a1.07,1.07,0,0,1,1.52,0,1.09,1.09,0,0,1,0,1.53,1.07,1.07,0,0,1-1.52,0,1.09,1.09,0,0,1,0-1.53Zm-2.83-2.82a1.08,1.08,0,1,1,0,1.53,1.09,1.09,0,0,1,0-1.53Zm-25.13,33.26,23-23a2.45,2.45,0,0,1,3.44,0l10.58,10.58a2.43,2.43,0,0,1,0,3.44l-23,23a2.45,2.45,0,0,1-3.44,0l-10.58-10.58a2.43,2.43,0,0,1,0-3.44Z"/></g><g class="cls-1"><path class="cls-2" d="M1730.26,1807.14c-1-1.16-.82-2.14.54-2.94a21.41,21.41,0,0,0,5-4.2c3.41-3.86,3.11-6.36,8.42-9.23,7.41-3.86,14.63-7.76,20.59-12,6.7-7.76,8.7-15.92,13-21.87,3.35-5.6,8.91-5.8,13-13,1.19-1.41,1.85-1.68,3.34.13,6,6.72,15.52,18,16.07,28.56.45,8.64-7,16.06-10.21,24.67l-4.78,10.41a45.84,45.84,0,0,1-13.71,6.88,95.45,95.45,0,0,0-14.1,7.69c-13.89,5.36-27.46-6.49-37.25-15Zm14-1.92c5.64-5.83,16-15.86,25-11.3a8.75,8.75,0,0,1,3.89,3.93c-11,12.28-18.14,12.47-28.91,7.37Zm49.36-46c-8.55,3.72-21.63,15.62-15.47,25.8a9.94,9.94,0,0,0,3.74,4.09c11.5-11.2,15.42-18.41,11.73-29.89Z"/></g><g class="cls-1"><path class="cls-2" d="M1295.9,1752.56a33.46,33.46,0,0,0,9.68-8.4c.69-.86,1.34-1.72,2-2.56,3.07-4,5.75-7.18,9.43-5.59,6.51,2.81,12.43,17.09,14.31,23.38,3.88,12.95,4.25,31.4-9,39.07a18.67,18.67,0,0,1-6.51,2.3,32.29,32.29,0,0,0-.06-16.56h0c2.75-2.46,6.83-3.79,10.75-4.81-3.09-3.45-8.41-2.46-12.58-1a68.75,68.75,0,0,0-12-19.65c-1.47-1.68-3.55-3.88-6-6.19Zm-54.28,38.3c0-1.66,1.12-3.16,2.67-4.53,2.91-2.57,6.59-4.56,10-6.5a34.31,34.31,0,0,0,15.47-18.45c.39-1.09.76-2.17,1.13-3.21,1.73-5,3.35-9.08,7.56-8.7,7.43.66,18.06,13,22,18.6,8.16,11.65,14.64,29.94,3.94,42-5.67,6.38-14.21,8.13-25,6.15a67.33,67.33,0,0,1-19.55-7.35c-4.25-2.47-18.29-12.59-18.16-18Zm20.78,9.52c-1.31.77-2.25,1-2.85.83-2.39-.79.2-11.42,8.56-12.39,11.8-1.48-2.65,9.9-5.71,11.56Zm26.27,4.8a11.21,11.21,0,0,1-8.13-1.7c8.76-2.88,14-8.54,15-17.66a14.26,14.26,0,0,1,3,6.61c1.21,7.13-3,11.59-9.91,12.75Zm.94-36.63c.51-1.43.6-2.4.3-3-1.21-2.21-11.2,2.27-10.64,10.67.7,11.88,9.26-4.41,10.34-7.71Zm19.49-6.4c.55-5,4.76-8.26,9.53-8.73,1.22-.11,4.64-.33,4.47,1.6a3.51,3.51,0,0,1-1,1.84,18.47,18.47,0,0,1-6.81,4.94,7.6,7.6,0,0,1-6.17.35Z"/></g><g class="cls-1"><path class="cls-2" d="M787,1322.05l41.64-41.63-2.44-2.44,2.45-2.44,32.14,32.14c.56-.83,1.09-1.66,1.6-2.48l2.92,1.85q-1.59,2.52-3.41,5.11l-10,27.29,28.61-10.51,1.19,3.24-31.36,11.53-11.53,31.36-3.24-1.19,10.51-28.61-27.25,10q-2.6,1.82-5.17,3.44l-1.85-2.92c.82-.52,1.65-1,2.48-1.6l-32.14-32.15,2.45-2.45,2.44,2.44ZM813.57,1307l6.47,3.31,5.13-5.15-1.15,7.18,6.48,3.28-7.18,1.12-1.12,7.18-3.29-6.48-7.17,1.15,5.14-5.13-3.31-6.46Zm3.62,45.22h0a176.17,176.17,0,0,0,22.34-19,179.36,179.36,0,0,0,19.26-22.57l-5.91-5.91-41.63,41.63,5.91,5.91Zm37.64-30.73c-3.91,4.77-8.24,9.54-12.82,14.12-4.43,4.43-9.1,8.69-13.85,12.58l19.48-7.16,7.19-19.54Z"/></g><g class="cls-1"><path class="cls-2" d="M257.8,1327.89l37.2-37.2a1.11,1.11,0,0,0,.91-.3,1.05,1.05,0,0,0,.3-.91l7.71-7.71a2.09,2.09,0,0,1,2.95,0l6.1,6.1a6.78,6.78,0,0,0,9.32,9.33l6.1,6.09a2.11,2.11,0,0,1,0,3l-7.71,7.7a1.1,1.1,0,0,0-.91.31,1.05,1.05,0,0,0-.3.9l-37.19,37.2a2.09,2.09,0,0,1-2.95,0l-6.06-6.06a6.78,6.78,0,0,0-9.4-9.39l-6.07-6.07a2.09,2.09,0,0,1,0-2.95ZM317,1311.44a1.07,1.07,0,0,1,1.52,0,1.09,1.09,0,0,1,0,1.53,1.07,1.07,0,0,1-1.52,0,1.09,1.09,0,0,1,0-1.53Zm-2.82-2.82a1.07,1.07,0,1,1,0,1.52,1.07,1.07,0,0,1,0-1.52Zm-2.83-2.82a1.09,1.09,0,0,1,1.53,0,1.07,1.07,0,0,1,0,1.52,1.09,1.09,0,0,1-1.53,0,1.07,1.07,0,0,1,0-1.52Zm-2.82-2.83a1.08,1.08,0,1,1,0,1.53,1.09,1.09,0,0,1,0-1.53Zm-2.82-2.82a1.07,1.07,0,0,1,1.52,0,1.09,1.09,0,0,1,0,1.53,1.07,1.07,0,0,1-1.52,0,1.09,1.09,0,0,1,0-1.53Zm-2.82-2.82a1.07,1.07,0,1,1,0,1.52,1.07,1.07,0,0,1,0-1.52Zm-2.83-2.82a1.09,1.09,0,0,1,1.53,0,1.07,1.07,0,0,1,0,1.52,1.09,1.09,0,0,1-1.53,0,1.07,1.07,0,0,1,0-1.52Zm-2.82-2.83a1.08,1.08,0,1,1,0,1.53,1.09,1.09,0,0,1,0-1.53Zm-25.13,33.26,23-23a2.43,2.43,0,0,1,3.44,0l10.58,10.57a2.44,2.44,0,0,1,0,3.45l-23,23a2.46,2.46,0,0,1-3.45,0l-10.57-10.58a2.43,2.43,0,0,1,0-3.44Z"/></g><g class="cls-1"><path class="cls-2" d="M1053.49,1341.1c-1-1.16-.82-2.14.54-2.94a21.62,21.62,0,0,0,5-4.2c3.4-3.87,3.1-6.36,8.42-9.24a173.27,173.27,0,0,0,20.59-12c6.7-7.75,8.7-15.92,13-21.86,3.35-5.61,8.9-5.8,13-13,1.19-1.41,1.85-1.67,3.34.14,6,6.71,15.52,18,16.07,28.56.45,8.63-7,16.06-10.22,24.67l-4.77,10.41a45.84,45.84,0,0,1-13.71,6.88,94.19,94.19,0,0,0-14.11,7.69c-13.88,5.35-27.45-6.49-37.24-15Zm14-1.92c5.64-5.83,16-15.86,25-11.3a8.73,8.73,0,0,1,3.89,3.92c-11,12.28-18.15,12.48-28.91,7.38Zm49.36-46c-8.55,3.72-21.63,15.62-15.47,25.8a9.89,9.89,0,0,0,3.73,4.08c11.51-11.19,15.43-18.41,11.74-29.88Z"/></g><g class="cls-1"><path class="cls-2" d="M567.12,1291.05a33.46,33.46,0,0,0,9.68-8.4c.69-.86,1.34-1.72,2-2.56,3.06-4,5.75-7.18,9.43-5.59,6.51,2.81,12.43,17.09,14.31,23.38,3.88,12.95,4.25,31.4-9,39.07a18.67,18.67,0,0,1-6.51,2.3,32.29,32.29,0,0,0-.06-16.56h0c2.75-2.45,6.82-3.78,10.75-4.81-3.09-3.45-8.41-2.46-12.58-1a68.75,68.75,0,0,0-12-19.65c-1.47-1.68-3.55-3.88-6-6.19Zm-54.28,38.3c0-1.66,1.12-3.16,2.67-4.52,2.91-2.58,6.59-4.57,10-6.51A34.27,34.27,0,0,0,541,1299.87c.39-1.09.76-2.16,1.13-3.21,1.73-5,3.35-9.07,7.56-8.7,7.43.66,18.06,13,22,18.61,8.16,11.64,14.64,29.93,3.94,42-5.68,6.38-14.21,8.13-25,6.15a67.33,67.33,0,0,1-19.55-7.35c-4.25-2.47-18.29-12.59-18.16-18Zm20.78,9.52c-1.31.77-2.25,1-2.85.84-2.39-.8.2-11.43,8.56-12.4,11.8-1.48-2.65,9.9-5.71,11.56Zm26.27,4.8a11.21,11.21,0,0,1-8.13-1.7c8.76-2.88,14-8.53,15-17.66a14.26,14.26,0,0,1,3,6.61c1.21,7.13-3,11.59-9.91,12.75Zm.94-36.62c.51-1.44.6-2.41.3-3-1.21-2.21-11.2,2.27-10.64,10.68.7,11.87,9.26-4.42,10.34-7.71Zm19.49-6.41c.55-5,4.76-8.26,9.53-8.73,1.21-.11,4.64-.33,4.47,1.6a3.47,3.47,0,0,1-1,1.84,18.56,18.56,0,0,1-6.82,5,7.61,7.61,0,0,1-6.16.34Z"/></g><g class="cls-1"><path class="cls-2" d="M1735.18,1313.34l41.63-41.64-2.44-2.43,2.45-2.45L1809,1299c.56-.83,1.09-1.66,1.61-2.48l2.92,1.85c-1.06,1.68-2.2,3.39-3.41,5.11l-10,27.29,28.6-10.51,1.2,3.24L1798.48,1335,1787,1366.35l-3.24-1.19,10.52-28.61-27.26,10c-1.73,1.21-3.45,2.36-5.17,3.43l-1.84-2.92c.82-.51,1.65-1,2.48-1.6l-32.14-32.15,2.45-2.45,2.43,2.44Zm26.54-15.07,6.47,3.31,5.12-5.15-1.15,7.18,6.48,3.28-7.17,1.13-1.13,7.17-3.28-6.48-7.18,1.15,5.15-5.12-3.31-6.47Zm3.62,45.23h0a186.43,186.43,0,0,0,41.61-41.62l-5.91-5.91-41.63,41.63,5.9,5.91Zm37.64-30.74c-3.91,4.77-8.25,9.55-12.82,14.12s-9.1,8.69-13.85,12.58l19.48-7.16,7.19-19.54Z"/></g><g class="cls-1"><path class="cls-2" d="M1283.8,1330.79l37.2-37.2a1.12,1.12,0,0,0,.91-.3,1.08,1.08,0,0,0,.3-.91l7.71-7.71a2.09,2.09,0,0,1,2.95,0l6.09,6.1a6.79,6.79,0,0,0,9.33,9.33l6.09,6.09a2.08,2.08,0,0,1,0,3l-7.7,7.71a1.09,1.09,0,0,0-.91.31,1.05,1.05,0,0,0-.3.9l-37.2,37.2a2.09,2.09,0,0,1-3,0l-6.06-6.06a6.78,6.78,0,0,0-9.39-9.39l-6.07-6.07a2.09,2.09,0,0,1,0-3Zm59.15-16.45a1.09,1.09,0,0,1,1.53,0,1.08,1.08,0,1,1-1.53,0Zm-2.82-2.82a1.09,1.09,0,0,1,1.53,0,1.07,1.07,0,0,1,0,1.52,1.09,1.09,0,0,1-1.53,0,1.07,1.07,0,0,1,0-1.52Zm-2.82-2.83a1.08,1.08,0,1,1,0,1.53,1.09,1.09,0,0,1,0-1.53Zm-2.82-2.82a1.07,1.07,0,0,1,1.52,0,1.09,1.09,0,0,1,0,1.53,1.07,1.07,0,0,1-1.52,0,1.09,1.09,0,0,1,0-1.53Zm-2.83-2.82a1.08,1.08,0,1,1,0,1.53,1.09,1.09,0,0,1,0-1.53Zm-2.82-2.82a1.09,1.09,0,0,1,1.53,0,1.07,1.07,0,0,1,0,1.52,1.09,1.09,0,0,1-1.53,0,1.07,1.07,0,0,1,0-1.52Zm-2.82-2.82a1.07,1.07,0,0,1,1.52,1.52,1.07,1.07,0,0,1-1.52-1.52Zm-2.82-2.83a1.07,1.07,0,0,1,1.52,0,1.09,1.09,0,0,1,0,1.53,1.07,1.07,0,0,1-1.52,0,1.09,1.09,0,0,1,0-1.53Zm-25.14,33.26,23-23a2.43,2.43,0,0,1,3.44,0l10.57,10.57a2.44,2.44,0,0,1,0,3.45l-23,23a2.45,2.45,0,0,1-3.44,0l-10.58-10.58a2.45,2.45,0,0,1,0-3.44Z"/></g><g class="cls-1"><path class="cls-2" d="M1549.73,1288a33.33,33.33,0,0,0,9.68-8.4c.69-.86,1.35-1.72,2-2.56,3.07-4,5.75-7.18,9.44-5.59,6.51,2.81,12.42,17.09,14.3,23.38,3.88,13,4.25,31.4-9,39.07a18.59,18.59,0,0,1-6.51,2.3,32.29,32.29,0,0,0-.06-16.56v0c2.74-2.46,6.82-3.79,10.74-4.82-3.08-3.45-8.41-2.46-12.57-1a68.77,68.77,0,0,0-12-19.65c-1.46-1.68-3.55-3.88-6-6.19Zm-54.28,38.3c0-1.66,1.12-3.16,2.67-4.52,2.92-2.58,6.6-4.57,10-6.51a34.3,34.3,0,0,0,15.46-18.45c.4-1.08.77-2.16,1.13-3.21,1.74-5,3.36-9.07,7.56-8.7,7.43.66,18.06,13,22,18.61,8.15,11.64,14.63,29.93,3.93,42-5.67,6.38-14.2,8.13-25,6.15a67.33,67.33,0,0,1-19.55-7.35c-4.25-2.47-18.29-12.59-18.16-18Zm20.79,9.52c-1.32.77-2.26,1-2.85.84-2.4-.79.2-11.43,8.56-12.4,11.79-1.48-2.66,9.9-5.71,11.56Zm26.27,4.8a11.23,11.23,0,0,1-8.14-1.7c8.76-2.87,14-8.53,15-17.66a14.24,14.24,0,0,1,3,6.61c1.21,7.13-3,11.59-9.9,12.75Zm.93-36.62c.52-1.44.6-2.41.3-3-1.21-2.21-11.2,2.27-10.64,10.68.7,11.87,9.27-4.42,10.34-7.71Zm19.5-6.41c.54-4.95,4.75-8.26,9.52-8.72,1.22-.12,4.65-.34,4.47,1.59a3.47,3.47,0,0,1-1,1.84,18.6,18.6,0,0,1-6.81,5,7.61,7.61,0,0,1-6.16.34Z"/></g><g class="cls-1"><path class="cls-2" d="M1478,662l-2.43,2.44-2.45-2.45,32.14-32.14c-.83-.55-1.66-1.09-2.48-1.61l1.84-2.92c1.72,1.08,3.45,2.23,5.17,3.44l27.26,10-10.52-28.6,3.24-1.2,11.54,31.36,31.36,11.54-1.2,3.23-28.6-10.51,10,27.29c1.21,1.73,2.35,3.43,3.41,5.12l-2.92,1.84c-.52-.82-1-1.64-1.61-2.48l-32.14,32.15-2.44-2.45,2.43-2.44L1478,662ZM1504.51,677l3.31-6.47-5.15-5.13,7.18,1.15,3.28-6.48,1.13,7.18,7.17,1.12-6.48,3.29,1.15,7.17-5.12-5.14-6.47,3.31Zm3.61-45.24-5.9,5.91,41.63,41.64,5.91-5.91a178.66,178.66,0,0,0-19.26-22.57,176.22,176.22,0,0,0-22.35-19.06h0Zm37.65,30.74L1538.58,643l-19.48-7.17c4.75,3.9,9.42,8.16,13.85,12.59s8.91,9.34,12.82,14.11Z"/></g><g class="cls-1"><path class="cls-2" d="M948.74,656.12a2.09,2.09,0,0,1,0-3l6.06-6.06a6.78,6.78,0,0,0,9.4-9.4l6.06-6.05a2.08,2.08,0,0,1,3,0l37.2,37.19a1.05,1.05,0,0,0,.3.91,1.11,1.11,0,0,0,.91.3l7.7,7.71a2.08,2.08,0,0,1,0,3l-6.09,6.09a6.79,6.79,0,0,0-9.33,9.33l-6.09,6.1a2.09,2.09,0,0,1-2.95,0l-7.71-7.71a1.05,1.05,0,0,0-.3-.9,1.09,1.09,0,0,0-.91-.31l-37.2-37.2Zm59.15,16.45a1.07,1.07,0,0,1,0-1.52,1.09,1.09,0,0,1,1.53,0,1.07,1.07,0,0,1,0,1.52,1.09,1.09,0,0,1-1.53,0Zm-2.82,2.83a1.08,1.08,0,1,1,1.53,0,1.09,1.09,0,0,1-1.53,0Zm-2.82,2.82a1.09,1.09,0,0,1,0-1.53,1.07,1.07,0,0,1,1.52,0,1.09,1.09,0,0,1,0,1.53,1.07,1.07,0,0,1-1.52,0ZM999.43,681a1.07,1.07,0,0,1,0-1.52,1.06,1.06,0,0,1,1.52,0,1.07,1.07,0,1,1-1.52,1.52Zm-2.83,2.82a1.07,1.07,0,0,1,0-1.52,1.09,1.09,0,0,1,1.53,0,1.07,1.07,0,0,1,0,1.52,1.09,1.09,0,0,1-1.53,0Zm-2.82,2.83a1.08,1.08,0,1,1,1.53,0,1.09,1.09,0,0,1-1.53,0ZM991,689.51a1.09,1.09,0,0,1,0-1.53,1.07,1.07,0,0,1,1.52,0,1.09,1.09,0,0,1,0,1.53,1.07,1.07,0,0,1-1.52,0Zm-2.82,2.82a1.07,1.07,0,0,1,0-1.52,1.06,1.06,0,0,1,1.52,0,1.07,1.07,0,0,1-1.52,1.52ZM963,659.07a2.45,2.45,0,0,1,0-3.44l10.58-10.57a2.43,2.43,0,0,1,3.44,0l23,23a2.43,2.43,0,0,1,0,3.44l-10.57,10.58a2.45,2.45,0,0,1-3.44,0l-23-23Z"/></g><g class="cls-1"><path class="cls-2" d="M1744.42,642.91c9.79-8.54,23.36-20.39,37.25-15a95.51,95.51,0,0,0,14.1,7.68,46,46,0,0,1,13.71,6.89l4.78,10.41c3.24,8.61,10.67,16,10.22,24.67-.56,10.57-10,21.84-16.08,28.56-1.49,1.81-2.15,1.54-3.34.13-4.13-7.24-9.68-7.43-13-13-4.34-6-6.34-14.11-13-21.87a173.27,173.27,0,0,0-20.59-12c-5.31-2.88-5-5.37-8.42-9.23a21.7,21.7,0,0,0-5-4.21c-1.35-.79-1.49-1.78-.54-2.94Zm14,1.93c10.76-5.1,17.93-4.91,28.91,7.37a8.78,8.78,0,0,1-3.9,3.93c-9,4.56-19.38-5.47-25-11.3Zm49.35,46c3.69-11.48-.23-18.7-11.73-29.89a9.92,9.92,0,0,0-3.73,4.09c-6.16,10.17,6.92,22.07,15.46,25.8Z"/></g><g class="cls-1"><path class="cls-2" d="M1258.05,693c2.46-2.32,4.54-4.52,6-6.2a68.41,68.41,0,0,0,12-19.65c4.16,1.46,9.49,2.45,12.58-1-3.93-1-8-2.35-10.75-4.81v0a32.29,32.29,0,0,0,.06-16.56,18.4,18.4,0,0,1,6.51,2.3c13.25,7.66,12.88,26.11,9,39.06-1.89,6.29-7.8,20.57-14.31,23.38-3.69,1.6-6.37-1.61-9.43-5.59-.64-.83-1.3-1.7-2-2.56a33.46,33.46,0,0,0-9.69-8.39Zm-54.28-38.31c-.13-5.4,13.91-15.52,18.17-18a67.27,67.27,0,0,1,19.54-7.35c10.84-2,19.37-.23,25,6.16,10.69,12,4.21,30.33-3.94,42-4,5.65-14.59,17.94-22,18.6-4.2.38-5.82-3.72-7.55-8.7-.37-1-.74-2.12-1.14-3.21a34.33,34.33,0,0,0-15.46-18.45c-3.38-1.94-7.06-3.93-10-6.5-1.56-1.37-2.63-2.87-2.68-4.53Zm20.79-9.52c3,1.66,17.51,13,5.71,11.57-8.36-1-11-11.61-8.56-12.4.6-.2,1.53.06,2.85.83Zm26.27-4.8c6.92,1.16,11.12,5.63,9.91,12.76a14.32,14.32,0,0,1-3,6.6c-1-9.12-6.25-14.78-15-17.65a11.19,11.19,0,0,1,8.14-1.71Zm.93,36.63c-1.07-3.3-9.64-19.59-10.34-7.71-.56,8.4,9.43,12.88,10.64,10.67.31-.56.22-1.53-.3-3Zm19.5,6.4a7.61,7.61,0,0,1,6.16.35,18.5,18.5,0,0,1,6.81,4.94,3.53,3.53,0,0,1,1,1.85c.17,1.93-3.26,1.7-4.48,1.59-4.77-.46-9-3.78-9.52-8.73Z"/></g><g class="cls-1"><path class="cls-2" d="M455.35,670.2l-2.43,2.44-2.45-2.45,32.14-32.14c-.83-.56-1.66-1.09-2.48-1.61l1.85-2.92c1.71,1.08,3.44,2.23,5.16,3.44l27.26,10-10.51-28.6,3.24-1.2,11.53,31.36L550,660.07l-1.2,3.24-28.6-10.51,10,27.29c1.21,1.73,2.35,3.43,3.41,5.12l-2.92,1.84c-.52-.82-1-1.64-1.61-2.48L497,716.72l-2.44-2.45,2.43-2.44L455.35,670.2Zm26.54,15.06,3.31-6.46-5.15-5.13,7.18,1.15,3.28-6.48,1.13,7.18,7.17,1.12-6.48,3.29,1.15,7.17L488.36,682l-6.47,3.3ZM485.5,640l-5.9,5.91,41.63,41.64,5.91-5.91a178.66,178.66,0,0,0-19.26-22.57A176.22,176.22,0,0,0,485.53,640h0Zm37.65,30.74L516,651.23l-19.48-7.16c4.75,3.9,9.42,8.16,13.85,12.59s8.91,9.34,12.82,14.11Z"/></g><g class="cls-1"><path class="cls-2" d="M4,652.75a2.11,2.11,0,0,1,0-3L10,643.73a6.78,6.78,0,0,0,9.39-9.4l6.06-6.05a2.09,2.09,0,0,1,3,0l37.2,37.19a1.08,1.08,0,0,0,.3.91,1.12,1.12,0,0,0,.91.3l7.71,7.71a2.09,2.09,0,0,1,0,3l-6.1,6.1a6.78,6.78,0,0,0-9.33,9.32L53,698.86a2.08,2.08,0,0,1-2.95,0l-7.71-7.7A1.06,1.06,0,0,0,41.17,690L4,652.75ZM63.13,669.2a1.08,1.08,0,1,1,1.52-1.53,1.09,1.09,0,0,1,0,1.53,1.07,1.07,0,0,1-1.52,0ZM60.3,672a1.08,1.08,0,1,1,1.53,0,1.09,1.09,0,0,1-1.53,0Zm-2.82,2.82a1.08,1.08,0,1,1,1.53,0,1.09,1.09,0,0,1-1.53,0Zm-2.82,2.82a1.07,1.07,0,1,1,1.52,0,1.07,1.07,0,0,1-1.52,0Zm-2.82,2.83A1.08,1.08,0,0,1,53.36,679a1.09,1.09,0,0,1,0,1.53,1.07,1.07,0,0,1-1.52,0ZM49,683.31a1.08,1.08,0,1,1,1.53,0,1.09,1.09,0,0,1-1.53,0Zm-2.82,2.82a1.08,1.08,0,1,1,1.53,0,1.09,1.09,0,0,1-1.53,0ZM43.37,689a1.07,1.07,0,1,1,1.52,0,1.07,1.07,0,0,1-1.52,0ZM18.23,655.7a2.45,2.45,0,0,1,0-3.44l10.58-10.58a2.43,2.43,0,0,1,3.44,0l23,23a2.45,2.45,0,0,1,0,3.44L44.69,678.71a2.43,2.43,0,0,1-3.44,0l-23-23Z"/></g><g class="cls-1"><path class="cls-2" d="M704.27,641c9.78-8.55,23.35-20.39,37.24-15a94.53,94.53,0,0,0,14.1,7.69,45.72,45.72,0,0,1,13.71,6.88l4.78,10.41c3.25,8.61,10.67,16,10.22,24.67-.56,10.58-10,21.85-16.07,28.56-1.5,1.81-2.16,1.54-3.35.14-4.13-7.24-9.68-7.43-13-13-4.34-5.94-6.34-14.11-13-21.86-6-4.27-13.18-8.18-20.59-12-5.31-2.88-5-5.38-8.42-9.24a21.41,21.41,0,0,0-5-4.2c-1.35-.8-1.49-1.78-.53-2.94Zm14,1.92c10.76-5.1,17.93-4.9,28.91,7.38a8.78,8.78,0,0,1-3.89,3.92c-9,4.56-19.38-5.47-25-11.3Zm49.35,46c3.7-11.47-.23-18.69-11.73-29.88a9.89,9.89,0,0,0-3.73,4.08c-6.16,10.18,6.92,22.08,15.46,25.8Z"/></g><g class="cls-1"><path class="cls-2" d="M269.9,695.54c2.46-2.31,4.54-4.52,6-6.2a68.28,68.28,0,0,0,12-19.65c4.16,1.46,9.49,2.45,12.58-1-3.93-1-8-2.35-10.75-4.81v0a32.29,32.29,0,0,0,.06-16.56,18.4,18.4,0,0,1,6.51,2.3c13.25,7.66,12.88,26.12,9,39.07-1.89,6.28-7.8,20.56-14.31,23.38-3.69,1.59-6.37-1.62-9.43-5.6l-2-2.56a33.46,33.46,0,0,0-9.69-8.39Zm-54.28-38.31c-.13-5.39,13.91-15.52,18.17-18a67,67,0,0,1,19.54-7.36c10.84-2,19.37-.23,25,6.16,10.69,12,4.21,30.33-3.94,42-4,5.65-14.59,17.94-22,18.6-4.2.38-5.82-3.72-7.56-8.7-.36-1-.73-2.12-1.13-3.2a34.36,34.36,0,0,0-15.46-18.46c-3.38-1.94-7.06-3.93-10-6.5-1.55-1.37-2.62-2.87-2.67-4.53Zm20.79-9.52c3.05,1.66,17.51,13,5.71,11.57-8.36-1-11-11.61-8.56-12.4.6-.2,1.53.06,2.85.83Zm26.27-4.79c6.92,1.15,11.12,5.62,9.9,12.75a14.21,14.21,0,0,1-3,6.6c-1-9.12-6.26-14.78-15-17.65a11.14,11.14,0,0,1,8.14-1.7Zm.93,36.62c-1.07-3.3-9.64-19.59-10.34-7.71-.56,8.4,9.43,12.88,10.64,10.67.31-.56.22-1.53-.3-3Zm19.5,6.4a7.61,7.61,0,0,1,6.16.35,18.41,18.41,0,0,1,6.81,5,3.37,3.37,0,0,1,1,1.84c.18,1.93-3.25,1.7-4.47,1.59-4.77-.46-9-3.78-9.52-8.73Z"/></g><g class="cls-1"><path class="cls-2" d="M1294.66,462.1,1253,503.73l2.44,2.44-2.44,2.44-32.15-32.14c-.55.83-1.09,1.66-1.6,2.48l-2.92-1.85q1.59-2.52,3.41-5.11l10-27.29-28.6,10.51L1200,452l31.36-11.53,11.53-31.36,3.24,1.2-10.51,28.6,27.25-10q2.6-1.82,5.17-3.44l1.85,2.92c-.82.52-1.65,1.05-2.48,1.61l32.14,32.14-2.45,2.45-2.44-2.44Zm-26.54,15.06-6.47-3.3-5.13,5.14,1.15-7.18-6.47-3.28,7.17-1.12,1.13-7.18,3.28,6.48,7.18-1.15-5.15,5.13,3.31,6.46Zm-3.62-45.22h0A175.55,175.55,0,0,0,1242.13,451a178.72,178.72,0,0,0-19.26,22.58l5.91,5.9,41.63-41.63-5.91-5.91Zm-37.64,30.73c3.91-4.77,8.24-9.54,12.82-14.12,4.43-4.43,9.1-8.68,13.85-12.58l-19.48,7.16-7.19,19.54Z"/></g><g class="cls-1"><path class="cls-2" d="M1823.89,456.26l-37.2,37.2a1.12,1.12,0,0,0-.91.3,1.08,1.08,0,0,0-.3.91l-7.71,7.71a2.09,2.09,0,0,1-3,0l-6.1-6.1a6.78,6.78,0,0,0-9.32-9.33l-6.1-6.09a2.11,2.11,0,0,1,0-3l7.71-7.7a1.09,1.09,0,0,0,.91-.31,1.05,1.05,0,0,0,.3-.9l37.19-37.2a2.11,2.11,0,0,1,3,0l6.06,6.06a6.78,6.78,0,0,0,9.39,9.39l6.07,6.07a2.09,2.09,0,0,1,0,2.95Zm-59.16,16.45a1.07,1.07,0,0,1-1.52,0,1.09,1.09,0,0,1,0-1.53,1.07,1.07,0,0,1,1.52,0,1.09,1.09,0,0,1,0,1.53Zm2.83,2.82a1.09,1.09,0,0,1-1.53,0,1.07,1.07,0,0,1,0-1.52,1.09,1.09,0,0,1,1.53,0,1.07,1.07,0,0,1,0,1.52Zm2.82,2.82a1.08,1.08,0,1,1-1.53-1.52,1.09,1.09,0,0,1,1.53,0,1.07,1.07,0,0,1,0,1.52Zm2.82,2.83a1.08,1.08,0,1,1,0-1.53,1.09,1.09,0,0,1,0,1.53ZM1776,484a1.07,1.07,0,0,1-1.52,0,1.09,1.09,0,0,1,0-1.53,1.07,1.07,0,0,1,1.52,0,1.09,1.09,0,0,1,0,1.53Zm2.83,2.82a1.09,1.09,0,0,1-1.53,0,1.07,1.07,0,0,1,0-1.52,1.09,1.09,0,0,1,1.53,0,1.07,1.07,0,0,1,0,1.52Zm2.82,2.82a1.08,1.08,0,0,1-1.53-1.52,1.09,1.09,0,0,1,1.53,0,1.07,1.07,0,0,1,0,1.52Zm2.82,2.83a1.08,1.08,0,1,1,0-1.53,1.09,1.09,0,0,1,0,1.53Zm25.13-33.26-23,23a2.43,2.43,0,0,1-3.44,0l-10.58-10.57a2.46,2.46,0,0,1,0-3.45l23-23a2.46,2.46,0,0,1,3.45,0l10.57,10.58a2.43,2.43,0,0,1,0,3.44Z"/></g><g class="cls-1"><path class="cls-2" d="M1028.2,443.05c1,1.16.82,2.14-.54,2.94a21.87,21.87,0,0,0-5,4.2c-3.4,3.87-3.1,6.36-8.41,9.24a172.63,172.63,0,0,0-20.6,12c-6.69,7.75-8.7,15.92-13,21.86-3.35,5.61-8.9,5.8-13,13-1.19,1.41-1.86,1.68-3.35-.14-6-6.71-15.52-18-16.07-28.55-.45-8.64,7-16.07,10.22-24.67l4.78-10.41a45.45,45.45,0,0,1,13.7-6.89A94.19,94.19,0,0,0,991,428c13.89-5.35,27.45,6.5,37.24,15Zm-14,1.92c-5.64,5.84-16,15.86-25,11.3a8.78,8.78,0,0,1-3.89-3.92c11-12.28,18.15-12.48,28.91-7.38Zm-49.36,46c8.55-3.72,21.63-15.62,15.47-25.8a9.89,9.89,0,0,0-3.73-4.08c-11.5,11.19-15.43,18.41-11.74,29.88Z"/></g><g class="cls-1"><path class="cls-2" d="M1514.57,493.1a33.46,33.46,0,0,0-9.68,8.4c-.69.86-1.34,1.72-2,2.56-3.06,4-5.75,7.18-9.43,5.59-6.51-2.81-12.43-17.09-14.31-23.38-3.88-12.95-4.25-31.4,9-39.07a18.67,18.67,0,0,1,6.51-2.3,32.39,32.39,0,0,0,.06,16.56h0c-2.75,2.46-6.82,3.79-10.75,4.81,3.09,3.45,8.41,2.46,12.58,1a68.55,68.55,0,0,0,12,19.65c1.46,1.68,3.54,3.88,6,6.19Zm54.28-38.3c0,1.66-1.11,3.16-2.67,4.52-2.91,2.58-6.59,4.57-10,6.51a34.25,34.25,0,0,0-15.46,18.45c-.4,1.09-.77,2.17-1.14,3.21-1.73,5-3.35,9.08-7.56,8.7-7.43-.66-18-13-22-18.6-8.15-11.65-14.64-29.94-3.94-42,5.68-6.38,14.21-8.13,25-6.15a67.33,67.33,0,0,1,19.55,7.35c4.25,2.47,18.29,12.59,18.16,18Zm-20.78-9.52c1.31-.77,2.25-1,2.85-.83,2.39.79-.2,11.42-8.56,12.39-11.8,1.48,2.65-9.9,5.71-11.56Zm-26.27-4.8a11.2,11.2,0,0,1,8.13,1.7c-8.76,2.88-14,8.54-15,17.66a14.26,14.26,0,0,1-3-6.61c-1.21-7.13,3-11.59,9.91-12.75Zm-.93,36.63c-.52,1.43-.61,2.4-.3,3,1.21,2.21,11.2-2.27,10.63-10.67-.69-11.88-9.26,4.41-10.33,7.71Zm-19.5,6.4c-.55,4.95-4.76,8.26-9.53,8.73-1.21.11-4.64.33-4.47-1.6a3.47,3.47,0,0,1,1-1.84,18.39,18.39,0,0,1,6.81-4.94,7.57,7.57,0,0,1,6.16-.35Z"/></g><g class="cls-1"><path class="cls-2" d="M346.51,470.81l-41.63,41.64,2.44,2.44-2.45,2.44-32.14-32.14c-.56.83-1.09,1.66-1.61,2.48l-2.92-1.85c1.06-1.68,2.2-3.39,3.41-5.11l10-27.29L253,463.93l-1.2-3.24,31.37-11.53,11.53-31.36L298,419,287.46,447.6l27.26-10c1.73-1.2,3.45-2.36,5.17-3.43l1.84,2.92c-.82.51-1.65,1.05-2.48,1.6l32.15,32.15L349,473.26l-2.44-2.44ZM320,485.88l-6.46-3.31-5.13,5.15,1.15-7.18-6.48-3.28,7.18-1.13,1.12-7.17,3.28,6.48,7.18-1.15-5.14,5.12,3.3,6.47Zm-3.62-45.23h0a177,177,0,0,0-22.35,19,179.36,179.36,0,0,0-19.26,22.57l5.91,5.91,41.64-41.63-5.91-5.91Zm-37.64,30.74c3.92-4.77,8.25-9.54,12.82-14.12,4.43-4.43,9.1-8.69,13.85-12.58l-19.47,7.16-7.2,19.54Z"/></g><g class="cls-1"><path class="cls-2" d="M797.89,453.36l-37.2,37.2a1.09,1.09,0,0,0-1.21,1.21l-7.71,7.71a2.09,2.09,0,0,1-2.95,0l-6.09-6.1a6.79,6.79,0,0,0-9.33-9.33L727.31,478a2.08,2.08,0,0,1,0-2.95l7.7-7.71a1.08,1.08,0,0,0,.91-.31,1,1,0,0,0,.3-.9l37.2-37.2a2.09,2.09,0,0,1,3,0l6.06,6.06a6.78,6.78,0,0,0,9.4,9.39l6.06,6.07a2.09,2.09,0,0,1,0,2.95Zm-59.15,16.45a1.09,1.09,0,0,1-1.53,0,1.07,1.07,0,0,1,0-1.52,1.09,1.09,0,0,1,1.53,0,1.07,1.07,0,0,1,0,1.52Zm2.82,2.82a1.09,1.09,0,0,1-1.53,0,1.07,1.07,0,0,1,0-1.52,1.09,1.09,0,0,1,1.53,0,1.07,1.07,0,0,1,0,1.52Zm2.82,2.83a1.07,1.07,0,0,1-1.52,0,1.09,1.09,0,0,1,0-1.53,1.07,1.07,0,0,1,1.52,0,1.09,1.09,0,0,1,0,1.53Zm2.82,2.82a1.07,1.07,0,0,1-1.52,0,1.09,1.09,0,0,1,0-1.53,1.08,1.08,0,1,1,1.52,1.53ZM750,481.1a1.09,1.09,0,0,1-1.53,0,1.08,1.08,0,1,1,1.53,0Zm2.82,2.82a1.09,1.09,0,0,1-1.53,0,1.07,1.07,0,0,1,0-1.52,1.09,1.09,0,0,1,1.53,0,1.07,1.07,0,0,1,0,1.52Zm2.82,2.83a1.07,1.07,0,0,1-1.52,0,1.09,1.09,0,0,1,0-1.53,1.07,1.07,0,0,1,1.52,0,1.09,1.09,0,0,1,0,1.53Zm2.82,2.82a1.07,1.07,0,0,1-1.52,0,1.09,1.09,0,0,1,0-1.53,1.07,1.07,0,0,1,1.52,0,1.09,1.09,0,0,1,0,1.53Zm25.14-33.26-23,23a2.44,2.44,0,0,1-3.45,0L746.6,468.75a2.43,2.43,0,0,1,0-3.44l23-23a2.45,2.45,0,0,1,3.44,0l10.58,10.58a2.45,2.45,0,0,1,0,3.44Z"/></g><g class="cls-1"><path class="cls-2" d="M97.6,441.57c1,1.15.81,2.14-.54,2.94a21.41,21.41,0,0,0-5,4.2c-3.41,3.86-3.11,6.36-8.42,9.23A173.27,173.27,0,0,0,63,470c-6.7,7.76-8.7,15.92-13,21.87-3.34,5.6-8.9,5.8-13,13-1.19,1.41-1.85,1.68-3.34-.13-6-6.72-15.52-18-16.08-28.56-.45-8.64,7-16.06,10.22-24.67l4.78-10.41a46,46,0,0,1,13.71-6.89,95.51,95.51,0,0,0,14.1-7.68c13.89-5.36,27.46,6.49,37.25,15Zm-14,1.92c-5.63,5.83-16,15.86-25,11.3a8.78,8.78,0,0,1-3.9-3.93c11-12.28,18.15-12.47,28.91-7.37Zm-49.35,46c8.54-3.72,21.62-15.63,15.46-25.8A9.92,9.92,0,0,0,46,459.57c-11.5,11.2-15.42,18.41-11.73,29.89Z"/></g><g class="cls-1"><path class="cls-2" d="M532,496.15a33.33,33.33,0,0,0-9.68,8.4c-.69.86-1.34,1.72-2,2.56-3.07,4-5.75,7.18-9.44,5.59-6.51-2.81-12.42-17.09-14.3-23.38-3.88-12.95-4.25-31.4,9-39.07a18.67,18.67,0,0,1,6.51-2.3,32.29,32.29,0,0,0,.06,16.56h0c-2.74,2.45-6.82,3.79-10.74,4.81,3.08,3.45,8.41,2.46,12.58,1A68.53,68.53,0,0,0,526,490c1.46,1.68,3.55,3.88,6,6.19Zm54.28-38.3c0,1.66-1.12,3.16-2.67,4.52-2.91,2.58-6.59,4.57-10,6.51a34.33,34.33,0,0,0-15.46,18.45c-.4,1.09-.77,2.17-1.13,3.21-1.74,5-3.36,9.07-7.56,8.7-7.43-.66-18.06-13-22-18.61-8.15-11.64-14.63-29.93-3.93-42,5.67-6.38,14.21-8.13,25-6.15a67.33,67.33,0,0,1,19.55,7.35c4.25,2.47,18.29,12.59,18.16,18Zm-20.79-9.52c1.32-.77,2.26-1,2.86-.84,2.39.8-.21,11.43-8.56,12.4-11.8,1.48,2.65-9.9,5.7-11.56Zm-26.27-4.8a11.22,11.22,0,0,1,8.14,1.7c-8.76,2.88-14,8.54-15,17.66a14.34,14.34,0,0,1-3-6.61c-1.21-7.13,3-11.59,9.9-12.75Zm-.93,36.63c-.52,1.43-.6,2.4-.3,3,1.21,2.21,11.2-2.27,10.64-10.67-.7-11.88-9.26,4.41-10.34,7.71Zm-19.5,6.4c-.54,4.95-4.75,8.26-9.52,8.73-1.22.11-4.65.33-4.47-1.6a3.47,3.47,0,0,1,1-1.84,18.47,18.47,0,0,1,6.81-4.94,7.58,7.58,0,0,1,6.16-.35Z"/></g><g class="cls-1"><path class="cls-2" d="M533.2,881.52l41.63-41.63-2.43-2.44,2.44-2.44L607,867.15c.56-.83,1.09-1.66,1.61-2.48l2.92,1.85q-1.59,2.52-3.41,5.11l-10,27.29,28.6-10.51,1.2,3.24-31.36,11.53L585,934.54l-3.24-1.19,10.51-28.61-27.26,10c-1.72,1.21-3.45,2.36-5.16,3.44L558,915.28c.82-.52,1.65-1,2.48-1.6l-32.14-32.15,2.45-2.45,2.43,2.44Zm26.54-15.06,6.47,3.31,5.12-5.15-1.15,7.18,6.48,3.28-7.17,1.13-1.13,7.17-3.28-6.48-7.18,1.15,5.15-5.12-3.31-6.47Zm3.62,45.23h0a177,177,0,0,0,22.35-19A179.36,179.36,0,0,0,605,870.06l-5.91-5.91-41.63,41.63,5.91,5.91ZM601,881c-3.91,4.77-8.25,9.54-12.82,14.12-4.43,4.43-9.1,8.69-13.85,12.58l19.48-7.16L601,881Z"/></g><g class="cls-1"><path class="cls-2" d="M4,887.36l37.2-37.2a1.12,1.12,0,0,0,.91-.3,1.08,1.08,0,0,0,.3-.91l7.71-7.71a2.09,2.09,0,0,1,2.95,0l6.09,6.1a6.79,6.79,0,0,0,9.33,9.33l6.1,6.1a2.09,2.09,0,0,1,0,3l-7.71,7.7a1.09,1.09,0,0,0-.91.31,1.05,1.05,0,0,0-.3.9l-37.2,37.2a2.09,2.09,0,0,1-3,0l-6.06-6.06A6.78,6.78,0,0,0,10,896.38L4,890.31a2.09,2.09,0,0,1,0-2.95Zm59.16-16.45a1.07,1.07,0,0,1,1.52,0,1.09,1.09,0,0,1,0,1.53,1.08,1.08,0,0,1-1.52-1.53Zm-2.83-2.82a1.09,1.09,0,0,1,1.53,0,1.07,1.07,0,0,1,0,1.52,1.09,1.09,0,0,1-1.53,0,1.07,1.07,0,0,1,0-1.52Zm-2.82-2.82a1.09,1.09,0,0,1,1.53,0,1.07,1.07,0,0,1,0,1.52,1.09,1.09,0,0,1-1.53,0,1.07,1.07,0,0,1,0-1.52Zm-2.82-2.83a1.07,1.07,0,0,1,1.52,0,1.09,1.09,0,0,1,0,1.53,1.07,1.07,0,0,1-1.52,0,1.09,1.09,0,0,1,0-1.53Zm-2.82-2.82a1.07,1.07,0,0,1,1.52,0,1.09,1.09,0,0,1,0,1.53,1.08,1.08,0,0,1-1.52-1.53ZM49,856.8a1.09,1.09,0,0,1,1.53,0,1.07,1.07,0,0,1,0,1.52,1.09,1.09,0,0,1-1.53,0,1.07,1.07,0,0,1,0-1.52ZM46.19,854a1.09,1.09,0,0,1,1.53,0,1.07,1.07,0,0,1,0,1.52,1.09,1.09,0,0,1-1.53,0,1.07,1.07,0,0,1,0-1.52Zm-2.82-2.83a1.07,1.07,0,0,1,1.52,0,1.09,1.09,0,0,1,0,1.53,1.07,1.07,0,0,1-1.52,0,1.09,1.09,0,0,1,0-1.53ZM18.23,884.41l23-23a2.43,2.43,0,0,1,3.44,0L55.27,872a2.46,2.46,0,0,1,0,3.45l-23,23a2.43,2.43,0,0,1-3.44,0L18.23,887.85a2.45,2.45,0,0,1,0-3.44Z"/></g><g class="cls-1"><path class="cls-2" d="M799.66,900.57c-1-1.16-.82-2.14.53-2.94a21.67,21.67,0,0,0,5-4.2c3.4-3.87,3.1-6.36,8.41-9.24,7.41-3.85,14.64-7.76,20.59-12,6.7-7.75,8.71-15.92,13-21.86,3.35-5.61,8.9-5.8,13-13,1.19-1.41,1.86-1.67,3.35.14,6,6.71,15.51,18,16.07,28.56.45,8.63-7,16.06-10.22,24.67L864.71,901a45.78,45.78,0,0,1-13.7,6.88,94.19,94.19,0,0,0-14.11,7.69c-13.89,5.35-27.46-6.49-37.24-15Zm14-1.92c5.64-5.83,16-15.86,25-11.3a8.78,8.78,0,0,1,3.89,3.92c-11,12.28-18.15,12.48-28.91,7.38Zm49.36-46c-8.55,3.72-21.63,15.62-15.47,25.8a9.89,9.89,0,0,0,3.73,4.08c11.5-11.19,15.43-18.41,11.74-29.88Z"/></g><g class="cls-1"><path class="cls-2" d="M313.28,850.52a33.5,33.5,0,0,0,9.69-8.4c.69-.86,1.34-1.72,2-2.56,3.06-4,5.74-7.18,9.43-5.59,6.51,2.81,12.43,17.09,14.31,23.38,3.87,12.95,4.24,31.4-9,39.07a18.74,18.74,0,0,1-6.51,2.3,32.39,32.39,0,0,0-.06-16.56v0c2.74-2.46,6.82-3.79,10.75-4.82-3.09-3.45-8.42-2.46-12.58-1a68.55,68.55,0,0,0-12-19.65c-1.46-1.68-3.54-3.88-6-6.19ZM259,888.82c0-1.66,1.11-3.16,2.67-4.52,2.91-2.58,6.59-4.57,10-6.51a34.26,34.26,0,0,0,15.46-18.45c.4-1.08.77-2.16,1.14-3.21,1.73-5,3.35-9.07,7.55-8.7,7.44.66,18.06,13,22,18.61,8.15,11.64,14.64,29.93,3.94,42-5.68,6.38-14.21,8.13-25.05,6.15a67.27,67.27,0,0,1-19.54-7.35c-4.26-2.47-18.3-12.59-18.16-18Zm20.78,9.52c-1.31.77-2.25,1-2.85.84-2.4-.79.2-11.43,8.56-12.4,11.8-1.48-2.66,9.9-5.71,11.56Zm26.27,4.8a11.23,11.23,0,0,1-8.14-1.7c8.77-2.87,14-8.53,15-17.66a14.36,14.36,0,0,1,3,6.61c1.21,7.13-3,11.59-9.91,12.75Zm.93-36.62c.52-1.44.61-2.41.3-3-1.21-2.22-11.2,2.26-10.64,10.67.7,11.87,9.27-4.42,10.34-7.71Zm19.5-6.41c.55-5,4.75-8.26,9.53-8.72,1.21-.12,4.64-.34,4.47,1.59a3.5,3.5,0,0,1-1,1.84,18.52,18.52,0,0,1-6.81,4.95,7.61,7.61,0,0,1-6.16.34Z"/></g><g class="cls-1"><path class="cls-2" d="M1481.34,872.81,1523,831.17l-2.44-2.43,2.45-2.45,32.14,32.14c.56-.83,1.09-1.66,1.61-2.48l2.91,1.85c-1.05,1.68-2.2,3.39-3.41,5.11l-10,27.29,28.61-10.51,1.19,3.24-31.36,11.53-11.53,31.36-3.24-1.19L1540.39,896l-27.25,10c-1.73,1.21-3.45,2.36-5.17,3.43l-1.85-2.92c.82-.51,1.65-1,2.48-1.6l-32.14-32.14,2.45-2.45,2.44,2.43Zm26.55-15.07,6.46,3.31,5.13-5.15-1.15,7.18,6.48,3.28-7.18,1.13-1.12,7.17-3.29-6.48-7.17,1.15,5.14-5.12-3.3-6.47Zm3.62,45.23h0a177,177,0,0,0,22.35-19.05,179.37,179.37,0,0,0,19.25-22.57l-5.9-5.91-41.64,41.63,5.91,5.91Zm37.64-30.73c-3.92,4.77-8.25,9.54-12.83,14.11-4.43,4.43-9.09,8.69-13.85,12.58l19.48-7.16,7.2-19.53Z"/></g><g class="cls-1"><path class="cls-2" d="M1030,890.26l37.2-37.2a1.07,1.07,0,0,0,1.21-1.21l7.7-7.71a2.09,2.09,0,0,1,3,0l6.1,6.1a6.79,6.79,0,0,0,9.33,9.33l6.09,6.09a2.11,2.11,0,0,1,0,3l-7.71,7.7a1.09,1.09,0,0,0-1.21,1.21l-37.19,37.2a2.09,2.09,0,0,1-3,0l-6.06-6.06a6.78,6.78,0,0,0-9.4-9.39l-6.06-6.07a2.08,2.08,0,0,1,0-3Zm59.15-16.45a1.08,1.08,0,1,1,0,1.53,1.09,1.09,0,0,1,0-1.53ZM1086.3,871a1.07,1.07,0,1,1,0,1.52,1.07,1.07,0,0,1,0-1.52Zm-2.82-2.82a1.06,1.06,0,0,1,1.52,0,1.07,1.07,0,1,1-1.52,0Zm-2.83-2.83a1.08,1.08,0,1,1,0,1.53,1.09,1.09,0,0,1,0-1.53Zm-2.82-2.82a1.08,1.08,0,1,1,0,1.53,1.09,1.09,0,0,1,0-1.53ZM1075,859.7a1.07,1.07,0,1,1,0,1.52,1.07,1.07,0,0,1,0-1.52Zm-2.82-2.82a1.06,1.06,0,0,1,1.52,0,1.07,1.07,0,1,1-1.52,0Zm-2.83-2.83a1.08,1.08,0,1,1,0,1.53,1.09,1.09,0,0,1,0-1.53Zm-25.13,33.26,23-23a2.43,2.43,0,0,1,3.44,0l10.58,10.57a2.44,2.44,0,0,1,0,3.45l-23,23a2.45,2.45,0,0,1-3.44,0l-10.58-10.58a2.43,2.43,0,0,1,0-3.44Z"/></g><g class="cls-1"><path class="cls-2" d="M1730.26,902.06c-1-1.16-.82-2.15.54-2.94a21.7,21.7,0,0,0,5-4.21c3.41-3.86,3.11-6.35,8.42-9.23a173.27,173.27,0,0,0,20.59-12c6.7-7.76,8.7-15.92,13-21.87,3.35-5.6,8.91-5.79,13-13,1.19-1.41,1.85-1.68,3.34.13,6,6.72,15.52,18,16.07,28.56.45,8.64-7,16.06-10.21,24.67l-4.78,10.41a45.86,45.86,0,0,1-13.71,6.89,95.51,95.51,0,0,0-14.1,7.68c-13.89,5.36-27.46-6.49-37.25-15Zm14-1.92c5.64-5.84,16-15.86,25-11.3a8.68,8.68,0,0,1,3.89,3.92c-11,12.28-18.14,12.47-28.91,7.38Zm49.36-46c-8.55,3.73-21.63,15.63-15.47,25.8a9.88,9.88,0,0,0,3.74,4.09c11.5-11.19,15.42-18.41,11.73-29.89Z"/></g><g class="cls-1"><path class="cls-2" d="M1295.9,847.47a33.46,33.46,0,0,0,9.68-8.4c.69-.86,1.34-1.72,2-2.56,3.07-4,5.75-7.18,9.43-5.59,6.51,2.81,12.43,17.09,14.31,23.38,3.88,13,4.25,31.4-9,39.07a18.67,18.67,0,0,1-6.51,2.3,32.29,32.29,0,0,0-.06-16.56v0c2.75-2.46,6.83-3.79,10.75-4.82-3.09-3.44-8.41-2.46-12.58-1a68.75,68.75,0,0,0-12-19.65c-1.47-1.68-3.55-3.88-6-6.19Zm-54.28,38.3c0-1.66,1.12-3.15,2.67-4.52,2.91-2.58,6.59-4.57,10-6.51a34.27,34.27,0,0,0,15.47-18.45c.39-1.08.76-2.16,1.13-3.21,1.73-5,3.35-9.07,7.56-8.7,7.43.66,18.06,13,22,18.61,8.16,11.64,14.64,29.93,3.94,42-5.67,6.38-14.21,8.13-25,6.16a67.64,67.64,0,0,1-19.55-7.36c-4.25-2.46-18.29-12.59-18.16-18Zm20.78,9.52c-1.31.77-2.25,1-2.85.84-2.39-.79.2-11.43,8.56-12.4,11.8-1.47-2.65,9.9-5.71,11.56Zm26.27,4.8a11.21,11.21,0,0,1-8.13-1.7c8.76-2.87,14-8.53,15-17.66a14.26,14.26,0,0,1,3,6.61c1.21,7.13-3,11.59-9.91,12.75Zm.94-36.62c.51-1.44.6-2.41.3-3-1.21-2.22-11.2,2.26-10.64,10.67.7,11.87,9.26-4.42,10.34-7.71Zm19.49-6.41c.55-4.95,4.76-8.26,9.53-8.72,1.22-.12,4.64-.34,4.47,1.59a3.47,3.47,0,0,1-1,1.84,18.6,18.6,0,0,1-6.81,5,7.64,7.64,0,0,1-6.17.34Z"/></g><g class="cls-1"><path class="cls-2" d="M1294.66,1089,1253,1130.64l2.44,2.43-2.44,2.45-32.15-32.14c-.55.83-1.09,1.66-1.6,2.48l-2.92-1.85c1.06-1.68,2.2-3.39,3.41-5.11l10-27.3-28.6,10.52-1.2-3.24,31.36-11.53,11.53-31.36,3.24,1.19-10.51,28.61,27.25-10c1.73-1.21,3.45-2.36,5.17-3.43l1.85,2.92c-.82.51-1.65,1-2.48,1.6l32.14,32.14-2.45,2.45-2.44-2.43Zm-26.54,15.07-6.47-3.31-5.13,5.15,1.15-7.18-6.47-3.28,7.17-1.13,1.13-7.17,3.28,6.48,7.18-1.16-5.15,5.13,3.31,6.47Zm-3.62-45.23h0a174.74,174.74,0,0,0-22.35,19.05,178.66,178.66,0,0,0-19.26,22.57l5.91,5.91,41.63-41.63-5.91-5.91Zm-37.64,30.73c3.91-4.77,8.24-9.54,12.82-14.11,4.43-4.43,9.1-8.69,13.85-12.58l-19.48,7.16-7.19,19.53Z"/></g><g class="cls-1"><path class="cls-2" d="M1823.89,1083.17l-37.2,37.2a1.06,1.06,0,0,0-1.21,1.21l-7.71,7.7a2.08,2.08,0,0,1-3,0l-6.1-6.1a6.78,6.78,0,0,0-9.32-9.32l-6.1-6.1a2.09,2.09,0,0,1,0-3l7.71-7.71a1.12,1.12,0,0,0,.91-.3,1.08,1.08,0,0,0,.3-.91l37.19-37.19a2.11,2.11,0,0,1,3,0l6.06,6a6.78,6.78,0,0,0,9.39,9.4l6.07,6.07a2.09,2.09,0,0,1,0,3Zm-59.16,16.45a1.07,1.07,0,0,1-1.52,0,1.09,1.09,0,0,1,0-1.53,1.07,1.07,0,0,1,1.52,0,1.09,1.09,0,0,1,0,1.53Zm2.83,2.82a1.08,1.08,0,1,1,0-1.53,1.09,1.09,0,0,1,0,1.53Zm2.82,2.82a1.09,1.09,0,0,1-1.53,0,1.08,1.08,0,1,1,1.53,0Zm2.82,2.82a1.07,1.07,0,0,1-1.52,0,1.06,1.06,0,0,1,0-1.52,1.07,1.07,0,0,1,1.52,1.52Zm2.82,2.83a1.07,1.07,0,0,1-1.52,0,1.09,1.09,0,0,1,0-1.53,1.07,1.07,0,0,1,1.52,0,1.09,1.09,0,0,1,0,1.53Zm2.83,2.82a1.08,1.08,0,1,1,0-1.53,1.09,1.09,0,0,1,0,1.53Zm2.82,2.82a1.09,1.09,0,0,1-1.53,0,1.08,1.08,0,1,1,1.53,0Zm2.82,2.82a1.09,1.09,0,0,1-1.53,0,1.07,1.07,0,0,1,0-1.52,1.09,1.09,0,0,1,1.53,0,1.07,1.07,0,0,1,0,1.52Zm25.13-33.25-23,23a2.43,2.43,0,0,1-3.44,0l-10.58-10.58a2.45,2.45,0,0,1,0-3.44l23-23a2.44,2.44,0,0,1,3.45,0l10.57,10.58a2.43,2.43,0,0,1,0,3.44Z"/></g><g class="cls-1"><path class="cls-2" d="M1028.2,1070c1,1.16.82,2.14-.54,2.94a21.62,21.62,0,0,0-5,4.2c-3.4,3.86-3.1,6.36-8.41,9.24-7.42,3.85-14.64,7.75-20.6,12-6.69,7.75-8.7,15.91-13,21.86-3.35,5.61-8.9,5.8-13,13-1.19,1.41-1.86,1.68-3.35-.13-6-6.71-15.52-18-16.07-28.56-.45-8.64,7-16.06,10.22-24.67l4.78-10.41a45.66,45.66,0,0,1,13.7-6.88,94.19,94.19,0,0,0,14.11-7.69c13.89-5.36,27.45,6.49,37.24,15Zm-14,1.92c-5.64,5.83-16,15.86-25,11.3a8.8,8.8,0,0,1-3.89-3.93c11-12.27,18.15-12.47,28.91-7.37Zm-49.36,46c8.55-3.72,21.63-15.62,15.47-25.8a9.89,9.89,0,0,0-3.73-4.08c-11.5,11.19-15.43,18.4-11.74,29.88Z"/></g><g class="cls-1"><path class="cls-2" d="M1514.57,1120a33.46,33.46,0,0,0-9.68,8.4c-.69.86-1.34,1.72-2,2.55-3.06,4-5.75,7.19-9.43,5.6-6.51-2.82-12.43-17.1-14.31-23.38-3.88-13-4.25-31.4,9-39.07a18.67,18.67,0,0,1,6.51-2.3,32.39,32.39,0,0,0,.06,16.56v0c-2.75,2.46-6.82,3.79-10.75,4.82,3.09,3.44,8.41,2.46,12.58,1a68.28,68.28,0,0,0,12,19.65c1.46,1.68,3.54,3.89,6,6.2Zm54.28-38.3c0,1.65-1.11,3.15-2.67,4.52-2.91,2.57-6.59,4.56-10,6.51a34.21,34.21,0,0,0-15.46,18.45c-.4,1.08-.77,2.16-1.14,3.2-1.73,5-3.35,9.08-7.56,8.71-7.43-.66-18-13-22-18.61-8.15-11.64-14.64-29.93-3.94-42,5.68-6.39,14.21-8.14,25-6.16a67.35,67.35,0,0,1,19.55,7.36c4.25,2.46,18.29,12.59,18.16,18Zm-20.78-9.52c1.31-.77,2.25-1,2.85-.84,2.39.79-.2,11.42-8.56,12.4-11.8,1.47,2.65-9.91,5.71-11.56Zm-26.27-4.8a11.2,11.2,0,0,1,8.13,1.7c-8.76,2.87-14,8.53-15,17.65a14.18,14.18,0,0,1-3-6.6c-1.21-7.13,3-11.6,9.91-12.75Zm-.93,36.62c-.52,1.44-.61,2.41-.3,3,1.21,2.22,11.2-2.27,10.63-10.67-.69-11.87-9.26,4.41-10.33,7.71Zm-19.5,6.4c-.55,4.95-4.76,8.27-9.53,8.73-1.21.12-4.64.34-4.47-1.59a3.4,3.4,0,0,1,1-1.84,18.52,18.52,0,0,1,6.81-5,7.65,7.65,0,0,1,6.16-.35Z"/></g><g class="cls-1"><path class="cls-2" d="M346.51,1097.72l-41.63,41.63,2.44,2.44-2.45,2.45-32.14-32.15c-.56.84-1.09,1.66-1.61,2.49l-2.92-1.85q1.59-2.52,3.41-5.12l10-27.29L253,1090.84l-1.2-3.24,31.37-11.53,11.53-31.37,3.24,1.2-10.52,28.6,27.26-10q2.59-1.82,5.17-3.44l1.84,2.92c-.82.52-1.65,1.06-2.48,1.61l32.15,32.14-2.45,2.45-2.44-2.43ZM320,1112.79l-6.46-3.31-5.13,5.14,1.15-7.17-6.48-3.29,7.18-1.12,1.12-7.18,3.28,6.48,7.18-1.15-5.14,5.13,3.3,6.47Zm-3.62-45.23h0A176.22,176.22,0,0,0,294,1086.62a178.66,178.66,0,0,0-19.26,22.57l5.91,5.91,41.64-41.64-5.91-5.9Zm-37.64,30.73c3.92-4.77,8.25-9.54,12.82-14.11s9.1-8.69,13.85-12.59l-19.47,7.17-7.2,19.53Z"/></g><g class="cls-1"><path class="cls-2" d="M797.89,1080.27l-37.2,37.2a1.07,1.07,0,0,0-1.21,1.21l-7.71,7.7a2.08,2.08,0,0,1-2.95,0l-6.09-6.1a6.78,6.78,0,0,0-9.33-9.32l-6.09-6.1a2.08,2.08,0,0,1,0-2.95l7.7-7.71a1.06,1.06,0,0,0,1.21-1.21l37.2-37.19a2.09,2.09,0,0,1,3,0l6.06,6a6.78,6.78,0,0,0,9.4,9.4l6.06,6.07a2.09,2.09,0,0,1,0,3Zm-59.15,16.45a1.08,1.08,0,1,1,0-1.53,1.09,1.09,0,0,1,0,1.53Zm2.82,2.82a1.08,1.08,0,1,1,0-1.53,1.09,1.09,0,0,1,0,1.53Zm2.82,2.82a1.07,1.07,0,1,1,0-1.52,1.07,1.07,0,0,1,0,1.52Zm2.82,2.82a1.06,1.06,0,0,1-1.52,0,1.07,1.07,0,0,1,1.52-1.52,1.06,1.06,0,0,1,0,1.52ZM750,1108a1.08,1.08,0,1,1,0-1.53,1.09,1.09,0,0,1,0,1.53Zm2.82,2.82a1.08,1.08,0,1,1,0-1.53,1.09,1.09,0,0,1,0,1.53Zm2.82,2.82a1.07,1.07,0,1,1,0-1.52,1.07,1.07,0,0,1,0,1.52Zm2.82,2.82a1.07,1.07,0,1,1,0-1.52,1.07,1.07,0,0,1,0,1.52Zm25.14-33.25-23,23a2.44,2.44,0,0,1-3.45,0l-10.57-10.58a2.43,2.43,0,0,1,0-3.44l23-23a2.43,2.43,0,0,1,3.44,0l10.58,10.58a2.45,2.45,0,0,1,0,3.44Z"/></g><g class="cls-1"><path class="cls-2" d="M97.6,1068.47c1,1.16.81,2.14-.54,2.94a21.66,21.66,0,0,0-5,4.2c-3.41,3.87-3.11,6.36-8.42,9.24a173.27,173.27,0,0,0-20.59,12c-6.7,7.75-8.7,15.92-13,21.86-3.34,5.61-8.9,5.8-13,13-1.19,1.41-1.85,1.68-3.34-.14-6-6.71-15.52-18-16.08-28.55-.45-8.64,7-16.07,10.22-24.67L32.54,1068a45.51,45.51,0,0,1,13.71-6.89,94.53,94.53,0,0,0,14.1-7.69c13.89-5.35,27.46,6.5,37.25,15Zm-14,1.92c-5.63,5.84-16,15.86-25,11.3a8.75,8.75,0,0,1-3.9-3.92c11-12.28,18.15-12.48,28.91-7.38Zm-49.35,46c8.54-3.72,21.62-15.62,15.46-25.8a9.89,9.89,0,0,0-3.73-4.08c-11.5,11.19-15.42,18.41-11.73,29.88Z"/></g><g class="cls-1"><path class="cls-2" d="M532,1123.06a33.33,33.33,0,0,0-9.68,8.4c-.69.86-1.34,1.72-2,2.55-3.07,4-5.75,7.19-9.44,5.6-6.51-2.82-12.42-17.1-14.3-23.38-3.88-13-4.25-31.4,9-39.07a18.67,18.67,0,0,1,6.51-2.3,32.29,32.29,0,0,0,.06,16.56v0c-2.74,2.46-6.82,3.79-10.74,4.82,3.08,3.44,8.41,2.46,12.58,1a68.25,68.25,0,0,0,12,19.65c1.46,1.68,3.55,3.89,6,6.2Zm54.28-38.31c0,1.66-1.12,3.16-2.67,4.53-2.91,2.57-6.59,4.56-10,6.51a34.3,34.3,0,0,0-15.46,18.45c-.4,1.08-.77,2.16-1.13,3.2-1.74,5-3.36,9.08-7.56,8.7-7.43-.66-18.06-13-22-18.6-8.15-11.64-14.63-29.93-3.93-42,5.67-6.39,14.21-8.14,25-6.16a67.06,67.06,0,0,1,19.55,7.36c4.25,2.46,18.29,12.59,18.16,18Zm-20.79-9.52c1.32-.76,2.26-1,2.86-.83,2.39.79-.21,11.42-8.56,12.4-11.8,1.47,2.65-9.91,5.7-11.57Zm-26.27-4.79a11.22,11.22,0,0,1,8.14,1.7c-8.76,2.87-14,8.53-15,17.65a14.26,14.26,0,0,1-3-6.6c-1.21-7.13,3-11.6,9.9-12.75Zm-.93,36.62c-.52,1.44-.6,2.41-.3,3,1.21,2.22,11.2-2.27,10.64-10.67-.7-11.87-9.26,4.41-10.34,7.71Zm-19.5,6.4c-.54,5-4.75,8.27-9.52,8.73-1.22.12-4.65.34-4.47-1.59a3.44,3.44,0,0,1,1-1.84,18.6,18.6,0,0,1,6.81-5,7.66,7.66,0,0,1,6.16-.35Z"/></g><g class="cls-1"><path class="cls-2" d="M1287.57,1555.24l2.44-2.44,2.45,2.45-32.14,32.15c.83.55,1.66,1.09,2.48,1.6l-1.85,2.92c-1.72-1.07-3.44-2.23-5.17-3.43l-27.25-10,10.51,28.61-3.24,1.19-11.53-31.36-31.36-11.53,1.19-3.24,28.61,10.51-10-27.29c-1.21-1.72-2.36-3.43-3.41-5.11l2.92-1.85c.51.82,1,1.65,1.6,2.48l32.14-32.14,2.45,2.44-2.44,2.44,41.64,41.64ZM1261,1540.18l-3.3,6.47,5.14,5.12-7.17-1.15-3.29,6.48-1.12-7.17-7.18-1.13,6.48-3.28-1.15-7.18,5.13,5.15,6.46-3.31Zm-3.61,45.23,5.91-5.91-41.64-41.63-5.9,5.91a179.36,179.36,0,0,0,19.26,22.57,176.17,176.17,0,0,0,22.34,19.05Zm-37.64-30.74,7.19,19.54,19.48,7.16c-4.75-3.89-9.42-8.15-13.85-12.58s-8.91-9.35-12.82-14.12Z"/></g><g class="cls-1"><path class="cls-2" d="M1816.81,1561.08a2.09,2.09,0,0,1,0,3l-6.07,6.07a6.78,6.78,0,0,0-9.4,9.39l-6.06,6.06a2.09,2.09,0,0,1-3,0l-37.19-37.2a1,1,0,0,0-.31-.9,1.07,1.07,0,0,0-.9-.31l-7.71-7.7a2.09,2.09,0,0,1,0-3l6.1-6.1a6.78,6.78,0,0,0,9.32-9.33l6.1-6.1a2.09,2.09,0,0,1,3,0l7.71,7.71a1.05,1.05,0,0,0,.3.91,1.11,1.11,0,0,0,.91.3l37.2,37.2Zm-59.16-16.45a1.09,1.09,0,0,1,0,1.53,1.07,1.07,0,0,1-1.52,0,1.09,1.09,0,0,1,0-1.53,1.07,1.07,0,0,1,1.52,0Zm2.82-2.82a1.07,1.07,0,0,1,0,1.52,1.06,1.06,0,0,1-1.52,0,1.07,1.07,0,0,1,1.52-1.52Zm2.83-2.82a1.07,1.07,0,0,1,0,1.52,1.09,1.09,0,0,1-1.53,0,1.07,1.07,0,0,1,0-1.52,1.09,1.09,0,0,1,1.53,0Zm2.82-2.83a1.08,1.08,0,1,1-1.53,0,1.09,1.09,0,0,1,1.53,0Zm2.82-2.82a1.09,1.09,0,0,1,0,1.53,1.07,1.07,0,0,1-1.52,0,1.09,1.09,0,0,1,0-1.53,1.07,1.07,0,0,1,1.52,0Zm2.82-2.82a1.07,1.07,0,0,1,0,1.52,1.06,1.06,0,0,1-1.52,0,1.07,1.07,0,0,1,1.52-1.52Zm2.83-2.82a1.07,1.07,0,0,1,0,1.52,1.09,1.09,0,0,1-1.53,0,1.07,1.07,0,0,1,0-1.52,1.09,1.09,0,0,1,1.53,0Zm2.82-2.83a1.08,1.08,0,1,1-1.53,0,1.09,1.09,0,0,1,1.53,0Zm25.13,33.26a2.43,2.43,0,0,1,0,3.44L1792,1572.15a2.43,2.43,0,0,1-3.44,0l-23-23a2.43,2.43,0,0,1,0-3.44l10.58-10.58a2.43,2.43,0,0,1,3.44,0l23,23Z"/></g><g class="cls-1"><path class="cls-2" d="M1021.12,1574.29c-9.79,8.55-23.36,20.4-37.24,15a94.19,94.19,0,0,0-14.11-7.69,45.84,45.84,0,0,1-13.71-6.88l-4.77-10.41c-3.25-8.61-10.67-16-10.22-24.67.55-10.58,10-21.85,16.07-28.56,1.49-1.81,2.15-1.54,3.34-.14,4.14,7.24,9.69,7.43,13,13,4.33,6,6.33,14.11,13,21.86a173.27,173.27,0,0,0,20.59,12c5.31,2.88,5,5.38,8.42,9.24a21.62,21.62,0,0,0,5,4.2c1.36.8,1.49,1.78.54,2.94Zm-14-1.92c-10.76,5.1-17.94,4.9-28.91-7.38a8.73,8.73,0,0,1,3.89-3.92c9-4.56,19.38,5.47,25,11.3Zm-49.36-46c-3.69,11.47.23,18.69,11.74,29.88a10,10,0,0,0,3.73-4.08c6.16-10.18-6.92-22.08-15.47-25.8Z"/></g><g class="cls-1"><path class="cls-2" d="M1507.49,1524.24c-2.45,2.31-4.53,4.51-6,6.19a68.75,68.75,0,0,0-12,19.65c-4.17-1.46-9.49-2.44-12.58,1,3.92,1,8,2.36,10.75,4.82v0a32.29,32.29,0,0,0-.06,16.56,18.67,18.67,0,0,1-6.51-2.3c-13.25-7.67-12.88-26.12-9-39.07,1.88-6.29,7.8-20.57,14.31-23.38,3.68-1.59,6.36,1.61,9.43,5.59.64.84,1.29,1.7,2,2.56a33.46,33.46,0,0,0,9.68,8.4Zm54.28,38.3c.13,5.4-13.91,15.53-18.16,18a67.64,67.64,0,0,1-19.55,7.36c-10.83,2-19.37.22-25-6.16-10.7-12-4.22-30.33,3.94-42,4-5.65,14.58-18,22-18.61,4.21-.37,5.83,3.72,7.56,8.71.36,1,.74,2.12,1.13,3.2a34.27,34.27,0,0,0,15.47,18.45c3.38,1.94,7.06,3.93,10,6.51,1.55,1.37,2.63,2.87,2.67,4.52Zm-20.78,9.52c-3.06-1.65-17.51-13-5.71-11.56,8.36,1,11,11.61,8.56,12.4-.6.19-1.54-.07-2.85-.84Zm-26.27,4.8c-6.93-1.16-11.12-5.62-9.91-12.75a14.26,14.26,0,0,1,3-6.61c1,9.13,6.25,14.79,15,17.66a11.21,11.21,0,0,1-8.13,1.7Zm-.94-36.62c1.08,3.3,9.64,19.58,10.34,7.71.56-8.41-9.43-12.89-10.64-10.67-.3.55-.21,1.52.3,3Zm-19.49-6.4a7.68,7.68,0,0,1-6.17-.35,18.6,18.6,0,0,1-6.81-5,3.47,3.47,0,0,1-1-1.84c-.17-1.93,3.25-1.71,4.47-1.59,4.77.46,9,3.77,9.53,8.73Z"/></g><g class="cls-1"><path class="cls-2" d="M339.43,1546.52l2.43-2.43,2.45,2.45-32.14,32.14c.83.55,1.66,1.09,2.48,1.6l-1.84,2.92c-1.72-1.07-3.45-2.22-5.17-3.43l-27.26-10,10.52,28.61-3.24,1.19-11.54-31.36-31.36-11.53,1.2-3.24,28.6,10.52-10-27.3c-1.21-1.72-2.35-3.43-3.41-5.11l2.92-1.85c.52.82,1,1.65,1.61,2.48L297.79,1500l2.44,2.45-2.43,2.43,41.63,41.64Zm-26.54-15.06-3.31,6.47,5.15,5.13-7.18-1.16-3.28,6.48-1.13-7.17-7.17-1.13,6.48-3.28-1.15-7.18,5.12,5.15,6.47-3.31Zm-3.61,45.23,5.9-5.91-41.63-41.63-5.91,5.91a178.66,178.66,0,0,0,19.26,22.57,176.12,176.12,0,0,0,22.35,19h0ZM271.63,1546l7.19,19.53,19.48,7.16c-4.75-3.89-9.42-8.15-13.85-12.58s-8.91-9.34-12.82-14.11Z"/></g><g class="cls-1"><path class="cls-2" d="M790.81,1564a2.09,2.09,0,0,1,0,3l-6.07,6.07a6.78,6.78,0,0,0-9.39,9.39l-6.06,6.06a2.09,2.09,0,0,1-2.95,0l-37.2-37.2a1.05,1.05,0,0,0-.3-.9,1.09,1.09,0,0,0-.91-.31l-7.7-7.7a2.08,2.08,0,0,1,0-2.95l6.09-6.1a6.79,6.79,0,0,0,9.33-9.33l6.09-6.1a2.09,2.09,0,0,1,3,0l7.71,7.71a1.08,1.08,0,0,0,.3.91,1.12,1.12,0,0,0,.91.3l37.2,37.2Zm-59.15-16.45a1.08,1.08,0,1,1-1.53,0,1.09,1.09,0,0,1,1.53,0Zm2.82-2.82a1.07,1.07,0,0,1,0,1.52,1.09,1.09,0,0,1-1.53,0,1.07,1.07,0,0,1,0-1.52,1.09,1.09,0,0,1,1.53,0Zm2.82-2.82a1.07,1.07,0,0,1-1.52,1.52,1.06,1.06,0,0,1,0-1.52,1.07,1.07,0,0,1,1.52,0Zm2.82-2.83a1.09,1.09,0,0,1,0,1.53,1.07,1.07,0,0,1-1.52,0,1.09,1.09,0,0,1,0-1.53,1.07,1.07,0,0,1,1.52,0Zm2.83-2.82a1.08,1.08,0,1,1-1.53,0,1.09,1.09,0,0,1,1.53,0Zm2.82-2.82a1.07,1.07,0,0,1,0,1.52,1.09,1.09,0,0,1-1.53,0,1.07,1.07,0,0,1,0-1.52,1.09,1.09,0,0,1,1.53,0Zm2.82-2.82a1.07,1.07,0,0,1,0,1.52,1.09,1.09,0,0,1-1.53,0,1.07,1.07,0,0,1,0-1.52,1.09,1.09,0,0,1,1.53,0Zm2.82-2.83a1.09,1.09,0,0,1,0,1.53,1.07,1.07,0,0,1-1.52,0,1.09,1.09,0,0,1,0-1.53,1.07,1.07,0,0,1,1.52,0ZM776.55,1561a2.45,2.45,0,0,1,0,3.44L766,1575.05a2.43,2.43,0,0,1-3.44,0l-23-23a2.44,2.44,0,0,1,0-3.45L750.09,1538a2.43,2.43,0,0,1,3.44,0l23,23Z"/></g><g class="cls-1"><path class="cls-2" d="M90.51,1575.78c-9.78,8.54-23.35,20.39-37.24,15a95.51,95.51,0,0,0-14.1-7.68,45.74,45.74,0,0,1-13.71-6.89l-4.78-10.41c-3.24-8.61-10.67-16-10.22-24.67.56-10.57,10-21.84,16.08-28.56,1.49-1.81,2.15-1.54,3.34-.13,4.13,7.24,9.68,7.43,13,13,4.34,6,6.34,14.11,13,21.87a173.27,173.27,0,0,0,20.59,12c5.31,2.88,5,5.37,8.42,9.23a21.46,21.46,0,0,0,5,4.21c1.35.79,1.49,1.78.53,2.94Zm-14-1.92c-10.76,5.1-17.93,4.9-28.91-7.38a8.73,8.73,0,0,1,3.89-3.92c9.05-4.56,19.39,5.46,25,11.3Zm-49.35-46c-3.7,11.47.23,18.69,11.73,29.88a9.86,9.86,0,0,0,3.73-4.09c6.16-10.17-6.92-22.07-15.46-25.79Z"/></g><g class="cls-1"><path class="cls-2" d="M524.88,1521.19c-2.46,2.31-4.54,4.51-6,6.19a68.77,68.77,0,0,0-12,19.65c-4.16-1.46-9.49-2.44-12.57,1,3.92,1,8,2.36,10.74,4.82v0a32.29,32.29,0,0,0-.06,16.56,18.59,18.59,0,0,1-6.51-2.3c-13.25-7.67-12.88-26.12-9-39.07,1.88-6.29,7.79-20.57,14.3-23.38,3.69-1.59,6.37,1.62,9.44,5.6.63.83,1.29,1.69,2,2.55a33.5,33.5,0,0,0,9.69,8.4Zm54.28,38.3c.13,5.4-13.91,15.53-18.16,18a67.75,67.75,0,0,1-19.55,7.36c-10.84,2-19.37.23-25-6.16-10.7-12-4.22-30.33,3.93-42,4-5.65,14.59-18,22-18.61,4.2-.37,5.82,3.72,7.56,8.71.36,1,.73,2.12,1.13,3.2a34.3,34.3,0,0,0,15.46,18.45c3.38,1.94,7.06,3.93,10,6.51,1.55,1.37,2.62,2.87,2.67,4.52ZM558.37,1569c-3-1.65-17.51-13-5.71-11.56,8.36,1,11,11.61,8.56,12.4-.6.19-1.53-.07-2.85-.84Zm-26.27,4.8c-6.92-1.15-11.11-5.62-9.9-12.75a14.24,14.24,0,0,1,3-6.61c1,9.13,6.26,14.79,15,17.66a11.23,11.23,0,0,1-8.14,1.7Zm-.93-36.62c1.07,3.3,9.64,19.58,10.34,7.71.56-8.41-9.43-12.89-10.64-10.67-.3.55-.22,1.52.3,3Zm-19.5-6.4a7.65,7.65,0,0,1-6.16-.35,18.52,18.52,0,0,1-6.81-5,3.41,3.41,0,0,1-1-1.84c-.18-1.93,3.25-1.71,4.47-1.59,4.77.46,9,3.77,9.52,8.73Z"/></g></g></g></svg>