<svg xmlns="http://www.w3.org/2000/svg" viewBox="0 0 71.18 71.18"><defs><style>.cls-1{fill:#711324;}.cls-2{fill:#088f8f;}.cls-3{fill:#1a1a1a;}</style></defs><g id="Layer_2" data-name="Layer 2"><g id="Layer_1-2" data-name="Layer 1"><path class="cls-1" d="M0,71.18V45.57C7.52,46,13.54,57.33,13.54,71.18Z"/><path class="cls-1" d="M0,0V38.26C10.62,37.56,19.13,20.7,19.13,0Z"/><rect class="cls-1" y="41.11" width="5.84" height="1.93" rx="0.97"/><path class="cls-1" d="M71.18,71.18V45.57C63.66,46,57.64,57.33,57.64,71.18Z"/><path class="cls-1" d="M71.18,0V38.26C60.56,37.56,52.06,20.7,52.06,0Z"/><rect class="cls-1" x="65.34" y="41.11" width="5.84" height="1.93" rx="0.97" transform="translate(136.52 84.15) rotate(180)"/><path class="cls-2" d="M18.57,54c-.82-.34-1.54-.58-1.54,0v.28c0,.39-.19.48-.29.48s-.33-.09-.33-.48V42.48c0-.34.14-.44.29-.44s.33.1.33.44V43c0,4.6,1.64,11.85,7.06,11.85,3.22,0,5.33-2.2,5.33-5.71,0-9.17-12.82-9.22-12.82-20,0-4.27,2.59-8.88,7.15-8.88a9.79,9.79,0,0,1,4.18,1.15c.77.39,1.58.82,1.58.1v-.34c0-.33.1-.43.29-.43s.34.1.34.43V31.58c0,.34-.15.43-.34.43s-.29-.09-.29-.43v-.43c0-4.52-2-10.42-6-10.42-2.3,0-3.84,2.06-3.84,5.09,0,9.55,13,9.41,13,20.11,0,4.85-3.36,9.36-8.69,9.36A13.31,13.31,0,0,1,18.57,54Z"/><path class="cls-3" d="M46.65,39.69H42.76c-.33,0-.48.19-.48.34V52.32c0,1.34.1,1.87.48,1.87h2.55c.28,0,.38.1.38.24s-.1.29-.38.29H35.66c-.24,0-.39-.1-.39-.24s.1-.29.39-.29h1.77c.34,0,.44-.53.44-1.87V23.23c0-1.35-.1-1.88-.44-1.88H35.66c-.29,0-.39-.09-.39-.24s.1-.28.39-.28H46.51c4.32,0,8.54,3,8.54,9.41S51,39.69,46.65,39.69Zm-.72-18.34H42.76c-.33,0-.48.15-.48.29V38.92c0,.15.1.29.43.29H46c3,0,4-2.64,4-9S48.71,21.35,45.93,21.35Z"/></g></g></svg>