<svg xmlns="http://www.w3.org/2000/svg" width="300.071" height="300.069" viewBox="0 0 300.071 300.069">
  <g id="manage_accounts_white_24dp" transform="translate(0)">
    <g id="Group_4" data-name="Group 4" transform="translate(0.002)">
      <path id="Path_13" data-name="Path 13" d="M0,0H300.069V300.069H0Z" fill="none"/>
    </g>
    <g id="Group_6" data-name="Group 6" transform="translate(0 28.192)">
      <g id="Group_5" data-name="Group 5">
        <circle id="Ellipse_7" data-name="Ellipse 7" cx="62.554" cy="62.554" r="62.554" transform="translate(59.944)"/>
        <path id="Path_14" data-name="Path 14" d="M133.195,13.373c-3.329-.186-6.658-.373-10.138-.373C86.437,13,52.238,25.484,23.034,46.911,9.717,56.6,2,74.86,2,94.052v49.377H142.123c-11.954-21.055-19.066-46.768-19.066-74.531A157.64,157.64,0,0,1,133.195,13.373Z" transform="translate(-2 128.447)"/>
        <path id="Path_15" data-name="Path 15" d="M154.234,93.788a71.833,71.833,0,0,0-.993-10.431l18.876-16.723L155.559,37.989,131.55,46.1a60.379,60.379,0,0,0-17.882-10.431L108.7,11H75.586L70.618,35.671A60.379,60.379,0,0,0,52.736,46.1L28.728,37.989,12.17,66.634,31.046,83.357a71.825,71.825,0,0,0-.993,10.431,71.825,71.825,0,0,0,.993,10.431L12.17,120.943l16.558,28.645,24.009-8.113a60.379,60.379,0,0,0,17.882,10.431l4.967,24.671H108.7l4.967-24.671a60.379,60.379,0,0,0,17.882-10.431l24.009,8.113,16.558-28.645-18.876-16.723A71.834,71.834,0,0,0,154.234,93.788ZM92.143,126.9a33.115,33.115,0,1,1,33.115-33.115A33.213,33.213,0,0,1,92.143,126.9Z" transform="translate(127.954 95.3)"/>
      </g>
    </g>
  </g>
</svg>
