<svg xmlns="http://www.w3.org/2000/svg" width="250" height="250" viewBox="0 0 250 250">
  <path id="Icon_ionic-ios-contacts" data-name="Icon ionic-ios-contacts" d="M128.375,3.375a125,125,0,1,0,125,125A124.981,124.981,0,0,0,128.375,3.375Zm86.118,158.594c-4.868-1.562-14.243-2.043-17.728-6.25-1.743-2.1-.6-9.976-.6-9.976,15.144-.841,18.63-3.666,18.63-3.666,2.344-1.382,1.262-1.623.06-3.666-6.55-11-3.606-24.94-3.906-37.019-.24-10.036-2.885-21.034-12.019-26.683-4.567-2.825-11.839-4.147-18.87-4.147-5.709,0-11.238.841-15.2,2.464-25.481,10.216-10.457,43.99-19.171,63.341-1.5,3.245-3.666,4.387.12,6.31,0,0,4.507,2.644,17.368,3.786,0,0,.18,7.572,0,8.353-.661,2.945-7.091,4.988-9.5,5.649a79.157,79.157,0,0,0-9.856,3.425,2.392,2.392,0,0,0,.481,4.567,46.459,46.459,0,0,1,6.911,1.743s15.865,3.606,27.644,15.024c7.933,7.632,10.877,16.587,12.019,26.8a7.457,7.457,0,0,1-3.305,6.911l-3.425,2.163a1.716,1.716,0,0,1-2.584-1.442h0c0-17.728-10.7-33.353-27.524-39.183-8.113-2.825-16.887-3-25-5.829-2.464-.841-7.332-1.863-8.353-4.687-.962-2.764-.962-6.01-1.142-8.894q-.18-3.425-.18-6.851c0-1.5,3.846-4.687,4.687-6.07,3.245-5.409,3.546-12.68,4.147-18.81,5.228,1.442,5.889-8.233,6.791-11.178.661-2.043,3-12.56-1.562-14.183a25.274,25.274,0,0,0,2.524-8.834c1.2-7.692,1.683-16.106-.661-23.618-4.868-15.625-19.832-24.4-35.637-24.88C83.6,46.1,67.5,53.8,61.488,69.361,58.6,76.933,58.844,85.166,59.805,93.1c.421,3.606,1.022,7.632,2.825,10.877-3.846,1.683-2.7,10.637-2.043,12.8.962,3.065,1.8,14.062,7.272,12.56a85.969,85.969,0,0,0,2.344,14.6,21.846,21.846,0,0,0,4.928,8.353c1.082,1.2,1.623,1.322,1.563,2.885-.06,4.688.06,9.736-1.142,14.3s-11.238,6.49-15.264,7.332c-8.894,1.8-17.187,2.825-24.88,6.911A108.226,108.226,0,0,1,127.353,20.2a108.593,108.593,0,0,1,76.8,30.95A108.437,108.437,0,0,1,227.894,171.1,28.4,28.4,0,0,0,214.493,161.969Z" transform="translate(-3.375 -3.375)" fill="#fff"/>
</svg>
